<svg xmlns="http://www.w3.org/2000/svg" viewBox="0 0 408.6 104.34"><defs><style>.cls-1,.cls-2,.cls-3,.cls-4,.cls-5,.cls-6{fill:none;stroke-miterlimit:10;stroke-width:9px;}.cls-1{stroke:#9ac06d;}.cls-1,.cls-2,.cls-3,.cls-5,.cls-6{stroke-linecap:round;}.cls-2{stroke:#e78b45;}.cls-3{stroke:#30a8ae;}.cls-4,.cls-5{stroke:#7b65a3;}.cls-6{stroke:#f5b23d;}.cls-7{fill:#dd5653;}.cls-8{fill:#fff;}.cls-9{fill:#606363;}</style></defs><title>자산 3</title><g id="레이어_2" data-name="레이어 2"><g id="레이어_1-2" data-name="레이어 1"><circle class="cls-1" cx="244.15" cy="58.72" r="16.72"/><circle class="cls-2" cx="107.83" cy="58.72" r="16.72"/><path class="cls-1" d="M272.14,80.16V54.53s0-12.9,12.9-12.9H287"/><path class="cls-3" d="M404.1,93.59H391.61s-8.76,0-8.76-8.77V75.35"/><circle class="cls-4" cx="311.76" cy="58.72" r="16.72"/><line class="cls-5" x1="339.35" y1="80.16" x2="339.35" y2="39.02"/><circle class="cls-6" cx="183.66" cy="58.72" r="16.72"/><line class="cls-6" x1="211.25" y1="80.16" x2="211.25" y2="39.02"/><line class="cls-2" x1="150.57" y1="80.16" x2="150.57" y2="39.02"/><path class="cls-3" d="M398.88,39v8.2s0,11.17-11.17,11.17h-2.29"/><line class="cls-3" x1="398.88" y1="78.13" x2="398.88" y2="41.33"/><path class="cls-2" d="M138.62,42.91v4.31s0,11.17-11.16,11.17h-2.3"/><line class="cls-2" x1="138.62" y1="75.13" x2="138.62" y2="42.33"/><path class="cls-3" d="M354.91,42.29h13.4s7.23,0,7.23,8.14a7.5,7.5,0,0,1-7.23,8H363s-7.22.17-7.22,8.3S363,74.82,363,74.82h10"/><rect class="cls-7" y="26.77" width="77.57" height="77.57" rx="20.96"/><path class="cls-8" d="M45.68,47.44a14.2,14.2,0,0,0-28.31,0L14.84,77.81a1.31,1.31,0,0,0,1.3,1.42h6.92a2,2,0,0,0,2-1.82l.91-12.56a5.6,5.6,0,0,1,11.2,0L38,77.41A2,2,0,0,0,40,79.23H46.9a1.32,1.32,0,0,0,1.31-1.42Zm-14,7.81a5.36,5.36,0,1,1,5.35-5.35A5.36,5.36,0,0,1,31.71,55.25Z"/><circle class="cls-8" cx="58.3" cy="49.9" r="5.35"/><path class="cls-8" d="M62.06,79.23a2.67,2.67,0,0,0,2.67-2.88l-.83-11.5a5.6,5.6,0,0,0-11.2,0l-.83,11.5a2.68,2.68,0,0,0,2.67,2.88Z"/><path class="cls-8" d="M15.28,82.84a.59.59,0,0,1,.12-.42.69.69,0,0,1,.44-.11h1.25a.72.72,0,0,1,.45.11.59.59,0,0,1,.12.42l.22,11.57h5.95a.65.65,0,0,1,.42.1.52.52,0,0,1,.12.4v1.18a.5.5,0,0,1-.12.4.73.73,0,0,1-.42.09H16a.69.69,0,0,1-.41-.09.55.55,0,0,1-.11-.4Z"/><path class="cls-8" d="M29.68,85.89a5.16,5.16,0,0,1,2.11.4,4.32,4.32,0,0,1,1.55,1.11,5.09,5.09,0,0,1,1,1.76,8.41,8.41,0,0,1,.41,2.3.73.73,0,0,1-.12.52.8.8,0,0,1-.48.18l-6.91.54a2,2,0,0,0,.5,1,2.91,2.91,0,0,0,.87.59,3.91,3.91,0,0,0,1.12.27,6.12,6.12,0,0,0,1.21,0,7.2,7.2,0,0,0,1.16-.2,5.08,5.08,0,0,0,1-.34c.17-.09.29-.1.35,0a.55.55,0,0,1,.13.35l.14,1.26c0,.18,0,.29,0,.36a.91.91,0,0,1-.35.18,7.41,7.41,0,0,1-1.69.46,9.29,9.29,0,0,1-1.57.14,5.73,5.73,0,0,1-2.26-.41,4.66,4.66,0,0,1-1.66-1.13,4.75,4.75,0,0,1-1-1.73,6.69,6.69,0,0,1-.35-2.18,6.06,6.06,0,0,1,.33-2,5.32,5.32,0,0,1,1-1.71,4.58,4.58,0,0,1,1.54-1.2A4.76,4.76,0,0,1,29.68,85.89Zm2.61,4.39a2.52,2.52,0,0,0-.84-1.69,2.87,2.87,0,0,0-3.59.15,2.82,2.82,0,0,0-.8,1.93Z"/><path class="cls-8" d="M44.38,95.87a.48.48,0,0,1-.15.45.69.69,0,0,1-.48.15l-2,0c-.69,0-1.35,0-2,0a14,14,0,0,1-1.79-.19,4.94,4.94,0,0,1-1.45-.48,2.4,2.4,0,0,1-1.33-2.28,2.47,2.47,0,0,1,.67-1.81,4.72,4.72,0,0,1,1.7-1.1,9.6,9.6,0,0,1,2.2-.57c.79-.12,1.52-.2,2.2-.25a1.66,1.66,0,0,0-.58-1.05,2.85,2.85,0,0,0-1.17-.52,6.19,6.19,0,0,0-1.6-.11,18.19,18.19,0,0,0-1.85.22.46.46,0,0,1-.35,0,.34.34,0,0,1-.11-.27l-.12-1.29a.81.81,0,0,1,0-.39c0-.08.15-.13.31-.16.49-.1,1-.18,1.58-.24a12.22,12.22,0,0,1,1.71-.06,7.3,7.3,0,0,1,1.64.26,4,4,0,0,1,1.4.67,3.46,3.46,0,0,1,1,1.21,4.56,4.56,0,0,1,.42,1.86ZM37.6,93.32a.74.74,0,0,0,.33.62,2.51,2.51,0,0,0,.93.36,8.83,8.83,0,0,0,1.4.15c.54,0,1.12,0,1.74,0l0-2.57a14.33,14.33,0,0,0-3.17.45C38,92.56,37.6,92.89,37.6,93.32Z"/><path class="cls-8" d="M46.11,87.26c0-.19,0-.34,0-.46a.48.48,0,0,1,.1-.27.7.7,0,0,1,.24-.15,1.61,1.61,0,0,1,.39-.09c.46-.07,1-.12,1.57-.17S49.59,86,50.16,86l1.62,0A9.89,9.89,0,0,1,53,86a.84.84,0,0,1,.4.12c0,.06.06.19,0,.41l0,1.05c0,.26,0,.42-.12.48a.93.93,0,0,1-.5.06l-.83,0-1.15,0-1.21.07c-.4,0-.73.07-1,.11l0,7.65a.56.56,0,0,1-.11.41.65.65,0,0,1-.43.11H46.8a.65.65,0,0,1-.43-.11.61.61,0,0,1-.11-.41Z"/><path class="cls-8" d="M64.13,96.06a.61.61,0,0,1-.11.41.65.65,0,0,1-.43.11H62.31a.69.69,0,0,1-.44-.11.52.52,0,0,1-.1-.41l.15-5.33a2,2,0,0,0-2.57-2.49l-1.22.09A8.13,8.13,0,0,0,57,88.5v7.56a.56.56,0,0,1-.11.41.64.64,0,0,1-.43.11H55.2a.65.65,0,0,1-.43-.11.61.61,0,0,1-.11-.41l-.15-8.78c0-.17,0-.32,0-.42a.61.61,0,0,1,.08-.26.52.52,0,0,1,.22-.14l.39-.08,1-.15q.52-.08,1.14-.12L58.78,86c.5,0,1.09,0,1.75,0a3.89,3.89,0,0,1,1.74.36,3.22,3.22,0,0,1,1.18,1,4,4,0,0,1,.66,1.46,6.19,6.19,0,0,1,.17,1.8Z"/><path class="cls-9" d="M88.68,6a.78.78,0,0,1-.16.51.85.85,0,0,1-.54.12H87a.87.87,0,0,1-.55-.12A.73.73,0,0,1,86.26,6l-.32-4.68A.93.93,0,0,1,86,.62a.8.8,0,0,1,.63-.18h1.38a1,1,0,0,1,.62.14c.12.1.17.33.15.7Zm1.48-4.68c0-.37,0-.6.15-.7a1,1,0,0,1,.62-.14h1.38q.5,0,.63.18a.93.93,0,0,1,.1.66L92.72,6a.79.79,0,0,1-.15.51.87.87,0,0,1-.55.12H91a.85.85,0,0,1-.54-.12A.78.78,0,0,1,90.3,6Z"/><path class="cls-9" d="M100.84,1.55a.73.73,0,0,1,.53.15.66.66,0,0,1,.15.5l.19,14.54,6.15-.17a.68.68,0,0,1,.54.13.81.81,0,0,1,.14.52v1.5a.69.69,0,0,1-.14.5.93.93,0,0,1-.54.16l-8.47.24a.68.68,0,0,1-.54-.13.81.81,0,0,1-.14-.52L98.47,2.2a.67.67,0,0,1,.14-.5.73.73,0,0,1,.53-.15Zm15.55,10-2.47,0v6.69a.71.71,0,0,1-.15.51.72.72,0,0,1-.53.14h-1.69a.54.54,0,0,1-.68-.65V2.69a.76.76,0,0,1,.14-.51.76.76,0,0,1,.54-.15h1.69a.71.71,0,0,1,.53.15.71.71,0,0,1,.15.51V8.74l2.47,0V2.45a.67.67,0,0,1,.15-.51.71.71,0,0,1,.53-.15h1.69a.76.76,0,0,1,.54.15.72.72,0,0,1,.14.51V18a.76.76,0,0,1-.14.51.81.81,0,0,1-.54.14h-1.69a.77.77,0,0,1-.53-.14.71.71,0,0,1-.15-.51Z"/><path class="cls-9" d="M124.87,2.45a.72.72,0,0,1,.14-.51.76.76,0,0,1,.54-.15l10.8-.24a.83.83,0,0,1,.56.15.53.53,0,0,1,.12.5l-2,16.52a.81.81,0,0,1-.21.51.77.77,0,0,1-.54.15h-1.7a.69.69,0,0,1-.52-.15.62.62,0,0,1-.09-.51l1.7-14.29-8.16.17a.81.81,0,0,1-.54-.14.76.76,0,0,1-.14-.51Zm17.8,9.37v6.42a.71.71,0,0,1-.14.51.75.75,0,0,1-.53.14h-1.7a.72.72,0,0,1-.53-.14.71.71,0,0,1-.15-.51V2.69a.71.71,0,0,1,.15-.51A.71.71,0,0,1,140.3,2H142a.75.75,0,0,1,.53.15.71.71,0,0,1,.14.51V9l1.82-.07a.57.57,0,0,1,.47.11.74.74,0,0,1,.14.52v1.55a.66.66,0,0,1-.14.5.91.91,0,0,1-.47.13Z"/><path class="cls-9" d="M161.2,14.12a.66.66,0,0,1-.53-.13.75.75,0,0,1-.14-.52L160.36,2.2a.71.71,0,0,1,.14-.5.76.76,0,0,1,.54-.15l10.56-.24a.83.83,0,0,1,.54.14.59.59,0,0,1,.13.51l-.33,11.27a.78.78,0,0,1-.16.49.84.84,0,0,1-.52.16Zm2.33-2.86,5.4-.14.22-6.95-5.72.14Zm.85,12.33a.72.72,0,0,1-.53-.14.71.71,0,0,1-.15-.51V16.25a.66.66,0,0,1,.15-.5.71.71,0,0,1,.53-.15h1.69a.76.76,0,0,1,.54.15.71.71,0,0,1,.14.5v4.49l10.54-.2a.5.5,0,0,1,.6.63v1.55a.75.75,0,0,1-.12.51.65.65,0,0,1-.46.12ZM177.92,10v4.82a.71.71,0,0,1-.15.51.72.72,0,0,1-.53.14h-1.69a.76.76,0,0,1-.54-.14.76.76,0,0,1-.14-.51V2.2a.71.71,0,0,1,.14-.5.76.76,0,0,1,.54-.15h1.69a.71.71,0,0,1,.53.15.66.66,0,0,1,.15.5v5l1.82-.07a.62.62,0,0,1,.47.1.77.77,0,0,1,.13.53V9.33c0,.25,0,.42-.13.49a.84.84,0,0,1-.47.14Z"/><path class="cls-9" d="M201.59,12.18a.66.66,0,0,1,.47.13.68.68,0,0,1,.13.5v1.51a.79.79,0,0,1-.13.54.62.62,0,0,1-.45.13l-15,.25a.62.62,0,0,1-.45-.14.79.79,0,0,1-.13-.54v-1.5a.7.7,0,0,1,.13-.51.73.73,0,0,1,.48-.12Zm.51-9a.71.71,0,0,1-.15.51.73.73,0,0,1-.53.15l-12.21.21.09,3.78,11.9-.22a.73.73,0,0,1,.53.15.71.71,0,0,1,.15.51v1.5a.71.71,0,0,1-.15.51.73.73,0,0,1-.53.14l-14.2.25a.69.69,0,0,1-.52-.15.88.88,0,0,1-.16-.51L186.11,2a.63.63,0,0,1,.13-.51.87.87,0,0,1,.55-.14l14.63-.24a.73.73,0,0,1,.53.14.71.71,0,0,1,.15.51Zm-15,20.37a.72.72,0,0,1-.53-.14.71.71,0,0,1-.15-.51V17.59a.67.67,0,0,1,.15-.51.71.71,0,0,1,.53-.15h1.7a.75.75,0,0,1,.53.15.68.68,0,0,1,.14.51v3.15l11.75-.17a.68.68,0,0,1,.47.12.69.69,0,0,1,.14.51v1.55a.74.74,0,0,1-.12.5.62.62,0,0,1-.46.13Z"/><path class="cls-9" d="M223,2V.65a.66.66,0,0,1,.15-.5.71.71,0,0,1,.53-.15h1.7a.75.75,0,0,1,.53.15.67.67,0,0,1,.14.5V1.89l4.29-.1a.68.68,0,0,1,.47.12.69.69,0,0,1,.14.51v1.5a.79.79,0,0,1-.14.55.58.58,0,0,1-.44.13L226,4.7V6.64a7.1,7.1,0,0,0,0,.72.74.74,0,0,0,.36.54L231,11.14c.16.13.24.25.23.37a.84.84,0,0,1-.21.41l-1.11,1.33a.53.53,0,0,1-.39.24.82.82,0,0,1-.46-.19l-4.53-3.22L220,13.61a.68.68,0,0,1-.43.18.69.69,0,0,1-.41-.25L218,12.31c-.29-.3-.29-.56,0-.8l4.6-3.64a.92.92,0,0,0,.36-.54,7.1,7.1,0,0,0,0-.72V4.77l-4.36.07a.62.62,0,0,1-.45-.13.79.79,0,0,1-.13-.54V2.66a.68.68,0,0,1,.13-.5.73.73,0,0,1,.48-.13Zm4.34,16.4a1.36,1.36,0,0,0,.42-.33,1.06,1.06,0,0,0,.09-.54v-2a.76.76,0,0,1,.14-.51.8.8,0,0,1,.53-.14h1.7a.77.77,0,0,1,.53.14.71.71,0,0,1,.15.51v2a1.22,1.22,0,0,0,.08.54,1.31,1.31,0,0,0,.43.33L236.25,21a.59.59,0,0,1,.27.92l-.71,1.28a.76.76,0,0,1-.4.4.68.68,0,0,1-.52-.11l-5.64-3-5.52,3.22a.67.67,0,0,1-.54.12.85.85,0,0,1-.38-.41l-.68-1.24a.78.78,0,0,1-.15-.52c0-.12.16-.25.39-.38Zm6.32-12.28V2.2a.66.66,0,0,1,.15-.5.71.71,0,0,1,.53-.15H236a.76.76,0,0,1,.54.15.71.71,0,0,1,.14.5V13.4a.71.71,0,0,1-.14.5.76.76,0,0,1-.54.15h-1.69a.71.71,0,0,1-.53-.15.66.66,0,0,1-.15-.5V8.89L230.22,9a.7.7,0,0,1-.47-.12.69.69,0,0,1-.14-.51V6.78a.69.69,0,0,1,.14-.51.7.7,0,0,1,.47-.12Z"/><path class="cls-9" d="M259.09,14.17a7.77,7.77,0,0,1-2.88-.51,6.3,6.3,0,0,1-2.17-1.4,6.16,6.16,0,0,1-1.35-2.09,6.68,6.68,0,0,1-.48-2.54,6.85,6.85,0,0,1,.48-2.56A6,6,0,0,1,254,3a6.3,6.3,0,0,1,2.17-1.4,8.26,8.26,0,0,1,5.77,0A6.54,6.54,0,0,1,264.16,3a6.05,6.05,0,0,1,1.36,2.08A6.85,6.85,0,0,1,266,7.63a6.68,6.68,0,0,1-.48,2.54,6.19,6.19,0,0,1-1.36,2.09,6.54,6.54,0,0,1-2.18,1.4A7.79,7.79,0,0,1,259.09,14.17Zm0-2.81a4.44,4.44,0,0,0,1.66-.29,3.28,3.28,0,0,0,1.2-.8,3.47,3.47,0,0,0,.74-1.19A4.06,4.06,0,0,0,263,7.63a4.18,4.18,0,0,0-.26-1.48A3.42,3.42,0,0,0,262,5a3.28,3.28,0,0,0-1.2-.8,4.25,4.25,0,0,0-1.66-.29,4.16,4.16,0,0,0-1.63.29,3.28,3.28,0,0,0-1.2.8,3.33,3.33,0,0,0-.74,1.2,4.15,4.15,0,0,0-.25,1.46,4.05,4.05,0,0,0,.25,1.45,3.47,3.47,0,0,0,.74,1.19,3.28,3.28,0,0,0,1.2.8A4.35,4.35,0,0,0,259.09,11.36Zm-1.21,12.23a.73.73,0,0,1-.53-.14.71.71,0,0,1-.15-.51V16.25a.66.66,0,0,1,.15-.5.73.73,0,0,1,.53-.15h1.7a.73.73,0,0,1,.53.15.66.66,0,0,1,.15.5v4.49l10.53-.2a.73.73,0,0,1,.48.12.75.75,0,0,1,.13.51v1.55a.75.75,0,0,1-.12.51.67.67,0,0,1-.46.12Zm11-21.39a.67.67,0,0,1,.14-.5.75.75,0,0,1,.53-.15h1.7a.71.71,0,0,1,.53.15.66.66,0,0,1,.15.5V14.85a.71.71,0,0,1-.15.51.72.72,0,0,1-.53.14h-1.7a.75.75,0,0,1-.53-.14.71.71,0,0,1-.14-.51Z"/><path class="cls-9" d="M283.85,10.42V7.07a.71.71,0,0,1,.15-.51.77.77,0,0,1,.53-.14h1.69a.81.81,0,0,1,.54.14.76.76,0,0,1,.14.51v3.3l6.74-.12a.72.72,0,0,1,.47.12.7.7,0,0,1,.13.51v1.5a.79.79,0,0,1-.13.54.62.62,0,0,1-.45.14l-15,.24a.67.67,0,0,1-.45-.13.8.8,0,0,1-.13-.55v-1.5a.7.7,0,0,1,.13-.51.73.73,0,0,1,.48-.12ZM278.16,2a.76.76,0,0,1,.14-.51.81.81,0,0,1,.54-.14l14.63-.24a.76.76,0,0,1,.54.14.63.63,0,0,1,.14.51L293.93,8a.76.76,0,0,1-.18.51.8.8,0,0,1-.55.15h-1.69A.71.71,0,0,1,291,8.5a.7.7,0,0,1-.1-.51L291,3.92l-12.18.2A.76.76,0,0,1,278.3,4a.72.72,0,0,1-.14-.51Zm8,22.14a9,9,0,0,1-2.74-.37,5.66,5.66,0,0,1-1.91-1,3.88,3.88,0,0,1-1.11-1.48,4.51,4.51,0,0,1,0-3.58,3.88,3.88,0,0,1,1.11-1.48,5.69,5.69,0,0,1,1.9-1,10.14,10.14,0,0,1,5.5,0,5.6,5.6,0,0,1,1.9,1,3.91,3.91,0,0,1,1.12,1.48,4.63,4.63,0,0,1,0,3.58,3.91,3.91,0,0,1-1.12,1.48,5.61,5.61,0,0,1-1.9,1A8.93,8.93,0,0,1,286.15,24.1Zm0-2.56a3.43,3.43,0,0,0,2.24-.61,1.88,1.88,0,0,0,0-3,4.48,4.48,0,0,0-4.48,0,1.9,1.9,0,0,0,0,3A3.44,3.44,0,0,0,286.15,21.54Z"/><path class="cls-9" d="M312.53,1.55a.68.68,0,0,1,.47.12.69.69,0,0,1,.14.51v1.5a.79.79,0,0,1-.14.55.58.58,0,0,1-.44.13l-4.32.1V10.1a3,3,0,0,0,.06.68,1.87,1.87,0,0,0,.33.58l4.63,5.84a.47.47,0,0,1-.1.75l-1.48,1.19a.6.6,0,0,1-.38.18c-.1,0-.21-.09-.34-.26l-4.24-5.33-4.31,5.65c-.13.16-.25.25-.34.25a.6.6,0,0,1-.39-.18l-1.53-1.14a.46.46,0,0,1-.09-.75l4.74-6.2a2,2,0,0,0,.32-.58,2.44,2.44,0,0,0,.07-.68V4.53l-4.36.07a.62.62,0,0,1-.45-.13.8.8,0,0,1-.13-.55V2.42a.7.7,0,0,1,.13-.51.73.73,0,0,1,.48-.12Zm3.32,1.14a.71.71,0,0,1,.15-.51.71.71,0,0,1,.53-.15h1.69a.76.76,0,0,1,.54.15.76.76,0,0,1,.14.51V18.24a.54.54,0,0,1-.68.65h-1.69a.72.72,0,0,1-.53-.14.71.71,0,0,1-.15-.51Z"/><path class="cls-9" d="M340.63,10.73a.7.7,0,0,1,.47.12.69.69,0,0,1,.14.51v1.5a.79.79,0,0,1-.14.55.59.59,0,0,1-.44.13l-15,.24a.62.62,0,0,1-.45-.13.79.79,0,0,1-.14-.55V11.6a.71.71,0,0,1,.14-.51.7.7,0,0,1,.47-.12Zm-13.1-9.42a.75.75,0,0,1,.52.14.81.81,0,0,1,.15.51l.15,4.46,11.89-.22a.76.76,0,0,1,.54.15.72.72,0,0,1,.14.51v1.5a.76.76,0,0,1-.14.51.81.81,0,0,1-.54.14l-14.19.24a.69.69,0,0,1-.52-.14.88.88,0,0,1-.16-.51L325.15,2a.63.63,0,0,1,.14-.51.81.81,0,0,1,.54-.14Zm5.62,22.79a9.31,9.31,0,0,1-2.74-.35,5.36,5.36,0,0,1-1.91-1,3.76,3.76,0,0,1-1.12-1.44,4.53,4.53,0,0,1,0-3.54,3.84,3.84,0,0,1,1.12-1.44,5.57,5.57,0,0,1,1.9-1,9.58,9.58,0,0,1,2.75-.35,9.68,9.68,0,0,1,2.75.35,5.66,5.66,0,0,1,1.9,1,3.91,3.91,0,0,1,1.11,1.44,4.53,4.53,0,0,1,0,3.54,3.83,3.83,0,0,1-1.11,1.44,5.48,5.48,0,0,1-1.9,1A9.33,9.33,0,0,1,333.15,24.1Zm0-2.56a3.75,3.75,0,0,0,2.24-.55,1.72,1.72,0,0,0,.71-1.42,1.7,1.7,0,0,0-.71-1.41,3.68,3.68,0,0,0-2.24-.55,3.64,3.64,0,0,0-2.24.55,1.68,1.68,0,0,0-.72,1.41,1.7,1.7,0,0,0,.72,1.42A3.7,3.7,0,0,0,333.15,21.54Z"/><path class="cls-9" d="M347.92,18.7a1.53,1.53,0,0,1,.47-1.15,1.73,1.73,0,0,1,1.23-.45,1.7,1.7,0,0,1,1.19.45,1.5,1.5,0,0,1,.48,1.15,1.47,1.47,0,0,1-.48,1.14,1.73,1.73,0,0,1-1.19.44,1.76,1.76,0,0,1-1.23-.44A1.49,1.49,0,0,1,347.92,18.7Zm.22-16.4a.73.73,0,0,1,.15-.53.75.75,0,0,1,.55-.15h1.65a.8.8,0,0,1,.56.15.78.78,0,0,1,.14.53V14.56a.78.78,0,0,1-.14.53.8.8,0,0,1-.56.15h-1.65a.75.75,0,0,1-.55-.15.73.73,0,0,1-.15-.53Z"/><path class="cls-9" d="M360.06,6a.78.78,0,0,1-.16.51.85.85,0,0,1-.54.12h-1a.87.87,0,0,1-.55-.12.73.73,0,0,1-.15-.51l-.32-4.68a.93.93,0,0,1,.1-.66q.13-.18.63-.18h1.38a1,1,0,0,1,.62.14c.12.1.17.33.15.7Zm1.48-4.68c0-.37,0-.6.15-.7a1,1,0,0,1,.62-.14h1.38a.82.82,0,0,1,.63.18.93.93,0,0,1,.1.66L364.1,6a.73.73,0,0,1-.15.51.87.87,0,0,1-.55.12h-1a.85.85,0,0,1-.54-.12.78.78,0,0,1-.16-.51Z"/></g></g></svg>