<svg width="700" height="300" viewBox="0 0 700 300" fill="none" xmlns="http://www.w3.org/2000/svg">
<path d="M0 14.2857C0 6.39593 6.09729 0 13.6187 0H686.381C693.903 0 700 6.39593 700 14.2857V285.714C700 293.604 693.903 300 686.381 300H13.6187C6.09729 300 0 293.604 0 285.714V14.2857Z" fill="#2828C7"/>
<path d="M41.6467 136.963V138.422C41.6467 141.709 39.0306 144.441 33.9141 145.83L35.118 148.215C41.3921 146.502 44.8648 142.612 44.8648 136.963H41.6467ZM35.0948 136.963V139.394H43.7767V136.963H35.0948ZM48.6849 135.736V147.729H51.7641V135.736H48.6849ZM44.9806 140.806V143.307H49.1248V140.806H44.9806ZM37.6415 148.585V156.943H51.7641V148.585H37.6415ZM48.7312 151.016V154.512H40.6744V151.016H48.7312Z" fill="white"/>
<path d="M58.9856 136.963V139.417C58.9856 141.848 57.8049 144.511 54.8183 145.83L56.4389 148.215C59.9348 146.71 61.3934 143.075 61.3934 139.417V136.963H58.9856ZM59.5412 136.963V139.417C59.5412 142.983 60.9535 146.27 64.2874 147.636L65.908 145.298C63.0835 144.117 61.949 141.802 61.949 139.417V136.963H59.5412ZM70.4689 135.759V148.747H73.386V135.759H70.4689ZM67.899 140.945V143.446H71.3023V140.945H67.899ZM65.9311 136.083V148.632H68.8019V136.083H65.9311ZM58.6615 149.673V152.127H70.33V157.175H73.386V149.673H58.6615Z" fill="white"/>
<path d="M92.8812 142.427V144.904H98.5302V142.427H92.8812ZM87.047 137.38V140.482C87.047 144.557 85.4263 148.701 81.7684 150.391L83.69 152.868C87.7184 150.854 89.5474 145.877 89.5474 140.482V137.38H87.047ZM87.6952 137.38V140.482C87.6952 145.83 89.3853 150.553 93.4137 152.498L95.2427 150.044C91.7005 148.47 90.1493 144.557 90.1493 140.482V137.38H87.6952ZM97.0022 135.713V157.221H100.058V135.713H97.0022Z" fill="white"/>
<path d="M118.069 135.713V157.221H121.171V135.713H118.069ZM104.432 137.426V152.22H114.966V137.426H111.91V142.635H107.488V137.426H104.432ZM107.488 145.02H111.91V149.743H107.488V145.02Z" fill="white"/>
<path d="M132.629 136.963V138.514C132.629 141.593 129.967 144.997 125.128 145.83L126.448 148.377C132.004 147.289 135.315 143.168 135.315 138.514V136.963H132.629ZM133.254 136.963V138.514C133.254 143.237 136.542 147.289 142.098 148.377L143.418 145.83C138.556 144.997 135.917 141.663 135.917 138.514V136.963H133.254ZM124.688 152.058V154.558H144.089V152.058H124.688Z" fill="white"/>
<path d="M47.62 176.592V192.081H50.6992V176.592H47.62ZM49.8194 182.427V184.95H53.5468V182.427H49.8194ZM34.6318 186.108V188.585H36.4145C41.1838 188.585 43.6379 188.469 46.254 187.89L45.953 185.459C43.3832 186.015 41.068 186.108 36.4145 186.108H34.6318ZM34.6318 178.282V187.427H37.6879V180.76H44.2167V178.282H34.6318ZM36.8776 195.206V197.66H51.4632V195.206H36.8776ZM36.8776 190.46V196.456H39.9567V190.46H36.8776Z" fill="white"/>
<path d="M63.2687 188.886V192.035H66.3248V188.886H63.2687ZM55.1193 187.149V189.58H74.4973V187.149H55.1193ZM57.2724 191.409V193.84H69.0798V198.008H72.159V191.409H57.2724ZM63.2687 176.615V179.764H66.3248V176.615H63.2687ZM63.0835 179.996V180.435C63.0835 182.079 61.0925 183.769 55.9296 184.093L56.8557 186.385C62.6899 185.969 65.7923 183.7 65.7923 180.435V179.996H63.0835ZM63.8012 179.996V180.435C63.8012 183.7 66.8804 185.969 72.7378 186.385L73.6639 184.093C68.501 183.769 66.51 182.079 66.51 180.435V179.996H63.8012ZM56.9715 178.537V180.922H72.6452V178.537H56.9715Z" fill="white"/>
<path d="M85.0527 178.653V179.023C85.0527 185.089 83.1774 189.21 76.5792 192.498L78.1998 194.882C86.2566 190.877 88.0162 185.251 88.0162 178.653H85.0527ZM77.8525 178.653V181.084H86.5576V178.653H77.8525ZM85.0064 183.908L76.7644 184.371L77.158 186.964L85.0064 186.27V183.908ZM91.1879 176.592V198.031H94.2903V176.592H91.1879Z" fill="white"/>
<path d="M40.7662 218.305C37.525 218.305 35.1635 220.18 35.1635 222.889C35.1635 225.551 37.525 227.473 40.7662 227.473C44.0306 227.473 46.3921 225.551 46.3921 222.889C46.3921 220.18 44.0306 218.305 40.7662 218.305ZM40.7662 220.805C42.3405 220.805 43.4518 221.546 43.4518 222.889C43.4518 224.209 42.3405 224.949 40.7662 224.949C39.215 224.949 38.1038 224.209 38.1038 222.889C38.1038 221.546 39.215 220.805 40.7662 220.805ZM39.3308 229.603V238.239H42.41V229.603H39.3308ZM48.7073 217.448V238.887H51.7633V217.448H48.7073ZM34.2606 231.224C37.9648 231.2 43.0351 231.154 47.6886 230.228L47.4802 227.982C42.9425 228.677 37.6407 228.723 33.8901 228.723L34.2606 231.224Z" fill="white"/>
<path d="M69.843 217.448V238.887H72.9453V217.448H69.843ZM60.3971 223.005V224.116C60.3971 227.357 58.7302 230.992 55.2111 232.566L56.8549 234.928C60.8138 233.215 62.828 228.654 62.828 224.116V223.005H60.3971ZM61.0685 223.005V224.116C61.0685 228.515 63.1058 232.937 67.0648 234.581L68.7086 232.219C65.1663 230.714 63.4763 227.195 63.4763 224.116V223.005H61.0685ZM55.9288 220.944V223.375H67.8519V220.944H55.9288ZM60.3971 217.934V222.194H63.4763V217.934H60.3971Z" fill="white"/>
<path d="M17 84H178V125H17V84Z" fill="#1E1E87"/>
<path d="M39.5629 96.3621C36.2985 96.3621 33.937 99.3255 33.937 104.002C33.937 108.725 36.2985 111.689 39.5629 111.689C42.8273 111.689 45.1888 108.725 45.1888 104.002C45.1888 99.3255 42.8273 96.3621 39.5629 96.3621ZM39.5629 99.1634C41.1604 99.1634 42.2485 100.854 42.2485 104.002C42.2485 107.197 41.1604 108.91 39.5629 108.91C37.9654 108.91 36.9004 107.197 36.9004 104.002C36.9004 100.854 37.9654 99.1634 39.5629 99.1634ZM47.5271 94.8804V116.319H50.6294V94.8804H47.5271ZM49.9349 102.96V105.507H53.7318V102.96H49.9349Z" fill="white"/>
<path d="M68.8249 94.8804V116.319H71.9272V94.8804H68.8249ZM71.2327 102.868V105.414H75.0296V102.868H71.2327ZM55.7673 96.5704V111.364H66.1856V96.5704H63.1296V101.78H58.8233V96.5704H55.7673ZM58.8233 104.164H63.1296V108.887H58.8233V104.164Z" fill="white"/>
<path d="M77.2503 108.98V111.48H79.0562C82.7373 111.48 85.6544 111.388 88.8956 110.878L88.6178 108.424C85.4229 108.933 82.6678 108.98 79.0562 108.98H77.2503ZM77.2503 96.6631V109.79H80.3527V99.1634H87.3213V96.6631H77.2503ZM79.6118 102.613V105.021H87.0204V102.613H79.6118ZM90.1227 94.8804V116.319H93.225V94.8804H90.1227ZM92.5305 103.007V105.553H96.3274V103.007H92.5305Z" fill="white"/>
<path d="M234.696 60.5204V61.8169H238.395V60.5204H234.696ZM234.696 63.6091V64.9056H238.395V63.6091H234.696ZM225.43 58.7472V60.0437H234.505V58.7472H225.43ZM225.144 67.06C227.946 67.06 231.817 67.0219 235.134 66.4881L235.039 65.306C231.817 65.6873 227.794 65.7254 224.972 65.7254L225.144 67.06ZM227.146 59.7577V66.1639H228.671V59.7577H227.146ZM231.264 59.7577V66.1639H232.789V59.7577H231.264ZM237.518 57.4507V68.0896H239.1V57.4507H237.518ZM233.438 68.4328C229.853 68.4328 227.68 69.5577 227.68 71.5406C227.68 73.5235 229.853 74.6484 233.438 74.6484C237.003 74.6484 239.176 73.5235 239.176 71.5406C239.176 69.5577 237.003 68.4328 233.438 68.4328ZM233.438 69.6721C236.05 69.6721 237.613 70.3585 237.613 71.5406C237.613 72.7227 236.05 73.4281 233.438 73.4281C230.825 73.4281 229.262 72.7227 229.262 71.5406C229.262 70.3585 230.825 69.6721 233.438 69.6721Z" fill="white"/>
<path d="M246.649 58.3468V60.1009C246.649 62.732 244.971 65.0581 242.378 66.0114L243.217 67.2888C246.096 66.1639 247.964 63.4184 247.964 60.1009V58.3468H246.649ZM246.935 58.3468V60.2153C246.935 63.2087 248.822 65.7635 251.587 66.7931L252.426 65.5538C249.947 64.6958 248.231 62.5414 248.231 60.2153V58.3468H246.935ZM254.256 57.4507V67.899H255.839V57.4507H254.256ZM255.4 61.8931V63.2278H258.394V61.8931H255.4ZM250.348 68.3756C246.82 68.3756 244.685 69.5386 244.685 71.5215C244.685 73.5044 246.82 74.6484 250.348 74.6484C253.875 74.6484 256.01 73.5044 256.01 71.5215C256.01 69.5386 253.875 68.3756 250.348 68.3756ZM250.348 69.634C252.903 69.634 254.466 70.3204 254.466 71.5215C254.466 72.7227 252.903 73.4091 250.348 73.4091C247.793 73.4091 246.229 72.7227 246.229 71.5215C246.229 70.3204 247.793 69.634 250.348 69.634Z" fill="white"/>
<path d="M269.503 58.9379V62.0266C269.503 65.2869 267.425 68.5853 264.87 69.8056L265.843 71.1021C268.664 69.6721 270.8 65.9923 270.8 62.0266V58.9379H269.503ZM269.77 58.9379V62.0266C269.77 65.8589 271.925 69.4052 274.727 70.7779L275.681 69.5196C273.126 68.3375 271.067 65.1725 271.067 62.0266V58.9379H269.77ZM277.473 57.4316V74.7056H279.055V57.4316H277.473Z" fill="white"/>
<path d="M344.778 65.5541V66.8506H360.355V65.5541H344.778ZM346.78 62.4273V63.7238H358.563V62.4273H346.78ZM346.78 57.9849V63.1899H348.363V59.2814H358.372V57.9849H346.78ZM346.723 73.1615V74.458H358.639V73.1615H346.723ZM346.723 68.7V73.9051H348.306V69.9775H358.468V68.7H346.723Z" fill="white"/>
<path d="M364.415 62.6179V63.9144H376.122V62.6179H364.415ZM362.299 66.2214V67.5179H377.933V66.2214H362.299ZM364.415 58.0802V63.2662H365.978V58.0802H364.415ZM364.301 72.9709V74.2674H376.217V72.9709H364.301ZM364.301 69.2339V73.314H365.864V69.2339H364.301Z" fill="white"/>
<path d="M391.788 66.0689V69.0814H393.37V66.0689H391.788ZM384.791 65.516V66.7934H400.368V65.516H384.791ZM392.57 68.6047C388.871 68.6047 386.659 69.6915 386.659 71.6362C386.659 73.5619 388.871 74.6487 392.57 74.6487C396.269 74.6487 398.48 73.5619 398.48 71.6362C398.48 69.6915 396.269 68.6047 392.57 68.6047ZM392.57 69.8249C395.277 69.8249 396.879 70.4732 396.879 71.6362C396.879 72.7802 395.277 73.4284 392.57 73.4284C389.881 73.4284 388.261 72.7802 388.261 71.6362C388.261 70.4732 389.881 69.8249 392.57 69.8249ZM391.559 58.8619V59.3767C391.559 61.3405 388.756 62.8849 385.668 63.209L386.24 64.4674C389.805 64.0288 392.97 62.1603 392.97 59.3767V58.8619H391.559ZM392.227 58.8619V59.3767C392.227 62.1603 395.372 64.0288 398.938 64.4674L399.51 63.209C396.421 62.8849 393.618 61.3405 393.618 59.3767V58.8619H392.227ZM386.221 58.2327V59.5102H398.976V58.2327H386.221Z" fill="white"/>
<path d="M470.239 67.1935V71.4834H471.821V67.1935H470.239ZM471.04 58.5756C467.398 58.5756 464.767 60.3488 464.767 63.0943C464.767 65.8398 467.398 67.613 471.04 67.613C474.681 67.613 477.293 65.8398 477.293 63.0943C477.293 60.3488 474.681 58.5756 471.04 58.5756ZM471.04 59.834C473.766 59.834 475.768 61.1305 475.768 63.0943C475.768 65.0581 473.766 66.3546 471.04 66.3546C468.294 66.3546 466.292 65.0581 466.292 63.0943C466.292 61.1305 468.294 59.834 471.04 59.834ZM463.261 71.1783V72.4939H478.876V71.1783H463.261Z" fill="white"/>
<path d="M486.825 59.4908V59.7386C486.825 63.8188 485.509 67.4604 480.876 69.9772L481.772 71.1211C486.978 68.204 488.312 63.9523 488.312 59.4908H486.825ZM481.715 59.4908V60.7873H487.416V59.4908H481.715ZM486.634 63.4756L480.857 63.8569L481.105 65.2297L486.634 64.6577V63.4756ZM486.978 64.2573V65.5348H490.943V64.2573H486.978ZM493.918 57.4507V74.6865H495.443V57.4507H493.918ZM490.352 57.8892V73.8095H491.839V57.8892H490.352Z" fill="white"/>
<path d="M510.847 57.4316V74.7056H512.429V57.4316H510.847ZM503.335 58.7663C500.799 58.7663 498.969 61.1114 498.969 64.7721C498.969 68.4519 500.799 70.797 503.335 70.797C505.89 70.797 507.72 68.4519 507.72 64.7721C507.72 61.1114 505.89 58.7663 503.335 58.7663ZM503.335 60.1962C505.032 60.1962 506.195 61.9885 506.195 64.7721C506.195 67.5748 505.032 69.4052 503.335 69.4052C501.657 69.4052 500.475 67.5748 500.475 64.7721C500.475 61.9885 501.657 60.1962 503.335 60.1962Z" fill="white"/>
<path d="M518.033 69.3671H516.947L516.47 59.5861H518.51L518.033 69.3671ZM516.298 72.1698C516.298 71.6995 516.413 71.369 516.641 71.1783C516.87 70.9877 517.15 70.8923 517.48 70.8923C517.798 70.8923 518.071 70.9877 518.3 71.1783C518.542 71.369 518.663 71.6995 518.663 72.1698C518.663 72.6274 518.542 72.9578 518.3 73.1612C518.071 73.3646 517.798 73.4663 517.48 73.4663C517.15 73.4663 516.87 73.3646 516.641 73.1612C516.413 72.9578 516.298 72.6274 516.298 72.1698Z" fill="white"/>
<path d="M568.552 63.2849V64.5814H573.357V63.2849H568.552ZM564.396 58.9379V62.0075C564.396 65.2106 562.451 68.5281 559.915 69.7865L560.926 71.0449C563.652 69.5768 565.692 65.8779 565.692 62.0075V58.9379H564.396ZM564.701 58.9379V62.0075C564.701 65.7826 566.703 69.3289 569.486 70.7398L570.42 69.4624C567.923 68.2803 565.978 65.1534 565.978 62.0075V58.9379H564.701ZM572.575 57.4316V74.7056H574.138V57.4316H572.575Z" fill="white"/>
<path d="M590 57.4316V74.7056H591.582V57.4316H590ZM578.465 58.8997V70.5492H586.587V58.8997H585.005V63.4565H580.028V58.8997H578.465ZM580.028 64.7149H585.005V69.2527H580.028V64.7149Z" fill="white"/>
<path d="M601.934 58.6328V59.9484C601.934 62.8846 598.693 65.5157 595.661 66.0877L596.367 67.4032C599.818 66.6215 603.307 63.7044 603.307 59.9484V58.6328H601.934ZM602.22 58.6328V59.9484C602.22 63.7235 605.728 66.6215 609.16 67.4032L609.865 66.0877C606.853 65.5157 603.593 62.9036 603.593 59.9484V58.6328H602.22ZM595.032 71.0639V72.3604H610.647V71.0639H595.032Z" fill="white"/>
<path d="M624.502 65.7254V68.3565H626.066V65.7254H624.502ZM619.583 57.7176V63.3993H631.061V57.7176H629.478V59.3192H621.147V57.7176H619.583ZM621.147 60.5394H629.478V62.1791H621.147V60.5394ZM617.505 64.8102V66.0877H633.082V64.8102H617.505ZM619.392 67.7655V68.9667H629.536V70.4538H619.431V73.7332H620.994V71.5978H631.099V67.7655H619.392ZM619.431 73.2756V74.4958H631.614V73.2756H619.431Z" fill="white"/>
<path d="M646.713 57.4316V74.6865H648.314V57.4316H646.713ZM647.876 64.4289V65.7445H651.06V64.4289H647.876ZM642.309 59.3001V59.548C642.309 64.1048 639.925 67.7846 635.159 70.206L636.036 71.4262C641.603 68.6235 643.853 64.2001 643.853 59.3001H642.309ZM635.959 59.3001V60.5966H643.128V59.3001H635.959Z" fill="white"/>
<path d="M213.085 104.576C213.085 95.7095 220.272 88.522 229.139 88.522H277.3C286.166 88.522 293.353 95.7094 293.353 104.576V152.737C293.353 161.603 286.166 168.79 277.3 168.79H229.139C220.272 168.79 213.085 161.603 213.085 152.737V104.576Z" fill="#FFA800"/>
<path d="M229.14 103.659C229.14 99.2256 232.733 95.6318 237.166 95.6318V95.6318C241.6 95.6318 245.193 99.2256 245.193 103.659V168.791H229.14V103.659Z" fill="white"/>
<path d="M229.14 118.794H277.301V168.79H229.14V118.794Z" fill="white"/>
<path d="M261.247 103.659C261.247 99.2256 264.84 95.6318 269.273 95.6318V95.6318C273.707 95.6318 277.3 99.2256 277.3 103.659V168.791H261.247V103.659Z" fill="white"/>
<path d="M246.181 146.983L243.129 144.979C244.452 142.204 245.698 140.303 246.868 139.276C248.055 138.231 249.581 137.709 251.447 137.709C252.973 137.709 255.126 138.334 257.907 139.584C260.451 140.731 262.291 141.305 263.427 141.305C264.529 141.305 265.42 141.04 266.098 140.509C266.81 139.995 267.59 139.019 268.438 137.58L271.567 139.43C270.956 140.68 270.329 141.751 269.685 142.641C269.057 143.532 268.387 144.268 267.675 144.851C266.963 145.416 266.2 145.835 265.386 146.109C264.589 146.366 263.707 146.495 262.74 146.495C261.418 146.495 259.697 146.024 257.577 145.082L254.423 143.746C253.1 143.181 251.972 142.898 251.04 142.898C249.225 142.898 247.606 144.26 246.181 146.983Z" fill="#2828C7"/>
<path d="M249.321 130.433C249.321 132.207 247.884 133.644 246.111 133.644C244.337 133.644 242.9 132.207 242.9 130.433C242.9 128.66 244.337 127.223 246.111 127.223C247.884 127.223 249.321 128.66 249.321 130.433Z" fill="#2828C7"/>
<path d="M263.769 130.433C263.769 132.207 262.332 133.644 260.558 133.644C258.785 133.644 257.348 132.207 257.348 130.433C257.348 128.66 258.785 127.223 260.558 127.223C262.332 127.223 263.769 128.66 263.769 130.433Z" fill="#2828C7"/>
<path d="M564.447 104.575C564.447 95.709 571.635 88.5215 580.501 88.5215H628.662C637.528 88.5215 644.716 95.709 644.716 104.575V152.736C644.716 161.602 637.528 168.79 628.662 168.79H580.501C571.635 168.79 564.447 161.602 564.447 152.736V104.575Z" fill="#FFA800"/>
<path d="M580.501 103.657C580.501 99.2241 584.095 95.6304 588.528 95.6304V95.6304C592.961 95.6304 596.555 99.2241 596.555 103.657V168.789H580.501V103.657Z" fill="white"/>
<path d="M580.501 118.794H628.662V168.79H580.501V118.794Z" fill="white"/>
<path d="M612.608 103.657C612.608 99.2241 616.202 95.6304 620.635 95.6304V95.6304C625.068 95.6304 628.662 99.2241 628.662 103.657V168.789H612.608V103.657Z" fill="white"/>
<path fill-rule="evenodd" clip-rule="evenodd" d="M617.174 124.99C616.828 124.369 616.043 124.145 615.422 124.491L593.176 136.876C592.555 137.222 592.331 138.006 592.677 138.627C593.023 139.249 593.807 139.472 594.429 139.126L616.675 126.742C617.296 126.396 617.52 125.612 617.174 124.99Z" fill="#2828C7"/>
<path fill-rule="evenodd" clip-rule="evenodd" d="M592.677 124.99C593.023 124.369 593.808 124.145 594.429 124.491L616.675 136.876C617.296 137.222 617.52 138.006 617.174 138.627C616.828 139.249 616.044 139.472 615.422 139.126L593.176 126.742C592.555 126.396 592.332 125.612 592.677 124.99Z" fill="#2828C7"/>
<path d="M330.207 104.575C330.207 95.709 337.394 88.5215 346.26 88.5215H394.421C403.287 88.5215 410.475 95.709 410.475 104.575V152.736C410.475 161.602 403.287 168.79 394.421 168.79H346.26C337.394 168.79 330.207 161.602 330.207 152.736V104.575Z" fill="#FFA800"/>
<path d="M346.26 103.657C346.26 99.2241 349.854 95.6304 354.287 95.6304V95.6304C358.72 95.6304 362.314 99.2241 362.314 103.657V168.789H346.26V103.657Z" fill="white"/>
<path d="M346.26 118.794H394.421V168.79H346.26V118.794Z" fill="white"/>
<path d="M378.368 103.657C378.368 99.2241 381.961 95.6304 386.395 95.6304V95.6304C390.828 95.6304 394.421 99.2241 394.421 103.657V168.789H378.368V103.657Z" fill="white"/>
<path d="M366.442 130.433C366.442 132.206 365.004 133.644 363.231 133.644C361.458 133.644 360.021 132.206 360.021 130.433C360.021 128.66 361.458 127.222 363.231 127.222C365.004 127.222 366.442 128.66 366.442 130.433Z" fill="#2828C7"/>
<path d="M375.829 141.365C375.829 138.779 373.732 136.682 371.146 136.682C368.56 136.682 366.464 138.779 366.464 141.365C366.464 143.951 368.56 146.047 371.146 146.047C373.732 146.047 375.829 143.951 375.829 141.365Z" fill="#2828C7"/>
<path d="M380.89 130.433C380.89 132.206 379.453 133.644 377.679 133.644C375.906 133.644 374.469 132.206 374.469 130.433C374.469 128.66 375.906 127.222 377.679 127.222C379.453 127.222 380.89 128.66 380.89 130.433Z" fill="#2828C7"/>
<path d="M447.327 104.575C447.327 95.709 454.515 88.5215 463.381 88.5215H511.542C520.408 88.5215 527.596 95.709 527.596 104.575V152.736C527.596 161.602 520.408 168.79 511.542 168.79H463.381C454.515 168.79 447.327 161.602 447.327 152.736V104.575Z" fill="#FFA800"/>
<path d="M463.381 103.657C463.381 99.2241 466.975 95.6304 471.408 95.6304V95.6304C475.841 95.6304 479.435 99.2241 479.435 103.657V168.789H463.381V103.657Z" fill="white"/>
<path d="M463.381 118.794H511.542V168.79H463.381V118.794Z" fill="white"/>
<path d="M495.488 103.657C495.488 99.2241 499.082 95.6304 503.515 95.6304V95.6304C507.948 95.6304 511.542 99.2241 511.542 103.657V168.789H495.488V103.657Z" fill="white"/>
<path d="M483.563 130.433C483.563 132.206 482.125 133.644 480.352 133.644C478.579 133.644 477.141 132.206 477.141 130.433C477.141 128.66 478.579 127.222 480.352 127.222C482.125 127.222 483.563 128.66 483.563 130.433Z" fill="#2828C7"/>
<path fill-rule="evenodd" clip-rule="evenodd" d="M498.335 125.994C498.759 126.564 498.641 127.371 498.071 127.796L494.953 130.117L498.344 131.023C499.031 131.207 499.439 131.912 499.256 132.6C499.072 133.287 498.366 133.695 497.679 133.511L491.716 131.918C491.239 131.791 490.877 131.401 490.784 130.916C490.691 130.431 490.883 129.936 491.28 129.641L496.533 125.73C497.103 125.305 497.91 125.423 498.335 125.994Z" fill="#2828C7"/>
<path d="M480.495 146.983L477.442 144.979C478.765 142.204 480.011 140.303 481.182 139.276C482.369 138.231 483.895 137.709 485.76 137.709C487.286 137.709 489.44 138.334 492.221 139.584C494.765 140.731 496.605 141.305 497.741 141.305C498.843 141.305 499.733 141.04 500.411 140.509C501.124 139.995 501.904 139.019 502.752 137.58L505.88 139.43C505.27 140.68 504.642 141.751 503.998 142.641C503.371 143.532 502.701 144.268 501.989 144.851C501.276 145.416 500.513 145.835 499.699 146.109C498.902 146.366 498.02 146.495 497.054 146.495C495.731 146.495 494.01 146.024 491.89 145.082L488.736 143.746C487.413 143.181 486.286 142.898 485.353 142.898C483.539 142.898 481.919 144.26 480.495 146.983Z" fill="#2828C7"/>
<path d="M261.352 191H237.852C234.62 191 232.006 193.655 232.006 196.9L231.977 244.1C231.977 247.345 234.591 250 237.822 250H273.102C276.333 250 278.977 247.345 278.977 244.1V208.7L261.352 191ZM267.227 223.45H258.414V234.512C258.414 238.17 255.447 241.15 251.805 241.15C248.162 241.15 245.195 238.17 245.195 234.512C245.195 230.854 248.162 227.875 251.805 227.875C253.156 227.875 254.419 228.288 255.477 228.996V217.55H267.227V223.45ZM258.414 211.65V195.425L274.57 211.65H258.414Z" fill="white"/>
<path d="M376.352 191H352.852C349.62 191 347.006 193.655 347.006 196.9L346.977 244.1C346.977 247.345 349.591 250 352.822 250H388.102C391.333 250 393.977 247.345 393.977 244.1V208.7L376.352 191ZM382.227 223.45H373.414V234.512C373.414 238.17 370.447 241.15 366.805 241.15C363.162 241.15 360.195 238.17 360.195 234.512C360.195 230.854 363.162 227.875 366.805 227.875C368.156 227.875 369.419 228.288 370.477 228.996V217.55H382.227V223.45ZM373.414 211.65V195.425L389.57 211.65H373.414Z" fill="white"/>
<path d="M496.727 191H473.727C470.564 191 468.005 193.655 468.005 196.9L467.977 244.1C467.977 247.345 470.535 250 473.698 250H508.227C511.389 250 513.977 247.345 513.977 244.1V208.7L496.727 191ZM502.477 223.45H493.852V234.512C493.852 238.17 490.948 241.15 487.383 241.15C483.818 241.15 480.914 238.17 480.914 234.512C480.914 230.854 483.818 227.875 487.383 227.875C488.705 227.875 489.942 228.288 490.977 228.996V217.55H502.477V223.45ZM493.852 211.65V195.425L509.664 211.65H493.852Z" fill="white"/>
<path d="M611.727 191H588.727C585.564 191 583.005 193.655 583.005 196.9L582.977 244.1C582.977 247.345 585.535 250 588.698 250H623.227C626.389 250 628.977 247.345 628.977 244.1V208.7L611.727 191ZM617.477 223.45H608.852V234.512C608.852 238.17 605.948 241.15 602.383 241.15C598.818 241.15 595.914 238.17 595.914 234.512C595.914 230.854 598.818 227.875 602.383 227.875C603.705 227.875 604.942 228.288 605.977 228.996V217.55H617.477V223.45ZM608.852 211.65V195.425L624.664 211.65H608.852Z" fill="white"/>
<path d="M209 100.49C209 91.6235 216.187 84.436 225.054 84.436H281.468C290.334 84.436 297.521 91.6235 297.521 100.49V156.904C297.521 165.77 290.334 172.957 281.468 172.957H225.054C216.187 172.957 209 165.77 209 156.904V100.49Z" fill="black" fill-opacity="0.7"/>
<path d="M248.882 126.206H257.739V113.949H263.644L253.31 99.6494L242.977 113.949H248.882V126.206ZM242.977 130.292H263.644V134.377H242.977V130.292Z" fill="white"/>
<path d="M236.39 145.566V147.606H240.813V145.566H236.39ZM232.348 142.401C229.679 142.401 227.677 144.174 227.677 146.615C227.677 149.074 229.679 150.829 232.348 150.829C234.998 150.829 237 149.074 237 146.615C237 144.174 234.998 142.401 232.348 142.401ZM232.348 144.518C233.644 144.518 234.579 145.299 234.579 146.615C234.579 147.93 233.644 148.731 232.348 148.731C231.051 148.731 230.098 147.93 230.098 146.615C230.098 145.299 231.051 144.518 232.348 144.518ZM239.707 141.677V151.172H242.243V141.677H239.707ZM230.518 151.934V159.141H242.243V151.934H239.727V153.612H233.034V151.934H230.518ZM233.034 155.557H239.727V157.12H233.034V155.557Z" fill="white"/>
<path d="M245.025 155.328V157.387H261.003V155.328H245.025ZM251.718 151.992V156.167H254.253V151.992H251.718ZM246.818 142.821V144.823H256.694V146.71H246.856V151.667H249.373V148.693H259.211V142.821H246.818ZM246.856 150.657V152.697H259.611V150.657H246.856Z" fill="white"/>
<path d="M264.414 149.818V151.839H276.826V149.818H264.414ZM262.565 155.137V157.216H278.542V155.137H262.565ZM264.414 143.126V150.657H266.931V145.185H276.693V143.126H264.414Z" fill="white"/>
<path d="M70.7495 45.6366V46.6962H71.5544C73.5107 46.6962 74.7028 46.686 76.0579 46.4822L75.9458 45.443C74.6111 45.6264 73.4801 45.6366 71.5544 45.6366H70.7495ZM70.7495 42.3965V46.2988H72.0944V43.446H75.2835V42.3965H70.7495ZM71.6767 44.0267V45.0354H75.0084V44.0267H71.6767ZM76.71 42.0195V46.9305H78.0753V42.0195H76.71ZM71.7786 47.2973V48.3162H76.7303V48.846H71.799V50.7921H73.1235V49.7834H78.0753V47.2973H71.7786ZM71.799 50.3641V51.3932H78.3096V50.3641H71.799Z" fill="white"/>
<path d="M80.0511 48.092V49.2026H80.8152C82.5371 49.2026 83.6681 49.1517 84.9315 48.9173L84.7991 47.8271C83.5764 48.0513 82.4862 48.092 80.8152 48.092H80.0511ZM80.0511 42.855V48.5098H81.4062V43.935H84.3202V42.855H80.0511ZM86.1745 42.0195V51.4849H87.5296V42.0195H86.1745ZM83.8617 45.2698V46.3701H86.7451V45.2698H83.8617Z" fill="white"/>
<path d="M88.9349 47.7558C88.9349 47.1988 88.9791 46.6554 89.0674 46.1256C89.1625 45.5958 89.3119 45.0898 89.5157 44.6075C89.7194 44.1252 89.981 43.6803 90.3002 43.2728H91.6349C91.3496 43.6939 91.1119 44.149 90.9217 44.638C90.7315 45.1271 90.5889 45.6332 90.4938 46.1562C90.4055 46.6792 90.3613 47.209 90.3613 47.7456C90.3613 48.2687 90.4055 48.7917 90.4938 49.3147C90.5889 49.8309 90.7315 50.3268 90.9217 50.8023C91.1119 51.2845 91.3496 51.7362 91.6349 52.1574H90.3002C89.981 51.7566 89.7194 51.3185 89.5157 50.843C89.3119 50.3743 89.1625 49.8785 89.0674 49.3555C88.9791 48.8324 88.9349 48.2992 88.9349 47.7558Z" fill="white"/>
<path d="M94.9985 49.437C95.1615 49.437 95.311 49.42 95.4468 49.386C95.5895 49.3521 95.7355 49.3113 95.8849 49.2638V50.3947C95.7151 50.4626 95.5147 50.5204 95.2838 50.5679C95.0596 50.6223 94.7947 50.6494 94.4891 50.6494C94.163 50.6494 93.871 50.5951 93.6128 50.4864C93.3615 50.3777 93.1645 50.1909 93.0219 49.926C92.8792 49.6543 92.8079 49.2807 92.8079 48.8053V46.1256H92.1456V45.4837L92.9404 44.9743L93.3887 43.8026H94.4381V44.9845H95.8238V46.1256H94.4381V48.8053C94.4381 49.0158 94.4891 49.1755 94.591 49.2841C94.6928 49.386 94.8287 49.437 94.9985 49.437Z" fill="white"/>
<path d="M98.5128 44.9845V50.5475H96.8826V44.9845H98.5128ZM97.7079 42.8041C97.9457 42.8041 98.1494 42.8584 98.3193 42.9671C98.4891 43.069 98.574 43.2626 98.574 43.5478C98.574 43.8263 98.4891 44.0199 98.3193 44.1286C98.1494 44.2373 97.9457 44.2916 97.7079 44.2916C97.4634 44.2916 97.2562 44.2373 97.0864 44.1286C96.9166 44.0199 96.8317 43.8263 96.8317 43.5478C96.8317 43.2626 96.9166 43.069 97.0864 42.9671C97.2562 42.8584 97.4634 42.8041 97.7079 42.8041Z" fill="white"/>
<path d="M101.528 50.5475H99.8975V42.8041H101.528V50.5475Z" fill="white"/>
<path d="M104.563 50.6494C103.999 50.6494 103.537 50.4083 103.177 49.926C102.817 49.437 102.637 48.7204 102.637 47.7762C102.637 46.8252 102.821 46.1052 103.187 45.6162C103.554 45.1271 104.03 44.8826 104.614 44.8826C104.858 44.8826 105.069 44.9199 105.246 44.9947C105.429 45.0626 105.585 45.1577 105.714 45.2799C105.85 45.4022 105.966 45.5415 106.061 45.6977H106.101C106.081 45.589 106.061 45.4328 106.04 45.229C106.02 45.0184 106.01 44.8045 106.01 44.5871V42.8041H107.64V50.5475H106.407L106.071 49.8241H106.01C105.921 49.9736 105.813 50.1128 105.684 50.2419C105.555 50.3641 105.398 50.4626 105.215 50.5374C105.032 50.6121 104.814 50.6494 104.563 50.6494ZM105.184 49.437C105.524 49.437 105.765 49.3147 105.908 49.0702C106.057 48.8189 106.132 48.4453 106.132 47.9494V47.7864C106.132 47.243 106.064 46.8286 105.928 46.5434C105.792 46.2581 105.538 46.1154 105.164 46.1154C104.899 46.1154 104.685 46.2615 104.522 46.5535C104.366 46.8388 104.288 47.2532 104.288 47.7966C104.288 48.34 104.366 48.7509 104.522 49.0294C104.685 49.3011 104.906 49.437 105.184 49.437Z" fill="white"/>
<path d="M111.294 44.8826C111.79 44.8826 112.218 44.9811 112.578 45.1781C112.938 45.375 113.216 45.6603 113.413 46.0339C113.61 46.4075 113.708 46.866 113.708 47.4094V48.143H110.397C110.411 48.5709 110.519 48.9072 110.723 49.1517C110.934 49.3962 111.233 49.5185 111.62 49.5185C111.959 49.5185 112.265 49.4845 112.537 49.4166C112.815 49.3419 113.101 49.2298 113.393 49.0804V50.2521C113.141 50.3879 112.866 50.4864 112.567 50.5475C112.275 50.6155 111.912 50.6494 111.477 50.6494C110.947 50.6494 110.475 50.5475 110.061 50.3438C109.653 50.1332 109.331 49.8174 109.093 49.3962C108.862 48.9751 108.747 48.4453 108.747 47.8068C108.747 47.1547 108.852 46.6147 109.062 46.1867C109.28 45.752 109.579 45.426 109.959 45.2086C110.346 44.9913 110.791 44.8826 111.294 44.8826ZM111.324 45.9626C111.08 45.9626 110.876 46.0577 110.713 46.2479C110.55 46.4381 110.455 46.7335 110.428 47.1343H112.211C112.211 46.9101 112.177 46.7098 112.109 46.5332C112.041 46.3566 111.942 46.2173 111.813 46.1154C111.684 46.0135 111.521 45.9626 111.324 45.9626Z" fill="white"/>
<path d="M117.095 47.7558C117.095 48.2992 117.047 48.8324 116.952 49.3555C116.864 49.8785 116.721 50.3743 116.524 50.843C116.327 51.3185 116.066 51.7566 115.74 52.1574H114.405C114.69 51.7362 114.925 51.2845 115.108 50.8023C115.298 50.3268 115.441 49.8309 115.536 49.3147C115.631 48.7917 115.679 48.2687 115.679 47.7456C115.679 47.209 115.631 46.6792 115.536 46.1562C115.441 45.6332 115.298 45.1271 115.108 44.638C114.925 44.149 114.687 43.6939 114.395 43.2728H115.74C116.066 43.6803 116.327 44.1252 116.524 44.6075C116.721 45.0898 116.864 45.5958 116.952 46.1256C117.047 46.6554 117.095 47.1988 117.095 47.7558Z" fill="white"/>
<path d="M91.0688 71.9753C88.1882 70.6272 85.6889 69.7426 83.5709 69.3213C81.4528 68.8158 79.4618 68.563 77.5979 68.563C75.3104 68.563 72.9382 69.2792 70.4813 70.7115C68.109 72.1438 65.9486 73.9131 64 76.0194V61.7385C65.9486 59.548 68.1938 57.905 70.7354 56.8098C73.2771 55.6302 76.0729 55.0404 79.1229 55.0404C81.4952 55.0404 83.8674 55.2932 86.2396 55.7987C88.6119 56.22 91.6619 57.2731 95.3896 58.9582C98.3549 60.3063 100.897 61.233 103.015 61.7385C105.217 62.1598 107.208 62.3704 108.988 62.3704C111.19 62.3704 113.478 61.6543 115.85 60.222C118.307 58.7897 120.552 57.0204 122.586 54.9141V69.1949C120.552 71.3855 118.265 73.0706 115.723 74.2501C113.266 75.3454 110.47 75.893 107.336 75.893C105.048 75.893 102.718 75.6824 100.346 75.2611C97.9737 74.7556 94.8813 73.6603 91.0688 71.9753Z" fill="white"/>
<path fill-rule="evenodd" clip-rule="evenodd" d="M52.8331 21.3525C49.4273 21.3525 46.6664 24.1135 46.6664 27.5192V39.1481H34.3333V27.5193C34.3333 24.1135 31.5724 21.3526 28.1667 21.3526C24.7609 21.3526 22 24.1135 22 27.5193V39.1481V77.5574V77.5576H59V39.1481H58.9997V27.5192C58.9997 24.1135 56.2388 21.3525 52.8331 21.3525Z" fill="white"/>
<path d="M35.0926 60.8049L32.7476 59.2654C33.7637 57.1337 34.7213 55.6732 35.6202 54.8837C36.5321 54.0811 37.7046 53.6797 39.1377 53.6797C40.3102 53.6797 41.9647 54.16 44.1013 55.1206C46.0555 56.0021 47.469 56.4429 48.3418 56.4429C49.1886 56.4429 49.8726 56.239 50.3937 55.8311C50.9409 55.4364 51.5402 54.6863 52.1915 53.5811L54.5952 55.0021C54.1262 55.9627 53.6441 56.7851 53.1491 57.4693C52.6671 58.1535 52.1525 58.7193 51.6053 59.1667C51.0581 59.6009 50.4719 59.9233 49.8465 60.1338C49.2342 60.3312 48.5568 60.4299 47.8142 60.4299C46.798 60.4299 45.4757 60.068 43.8472 59.3443L41.4241 58.318C40.4079 57.8838 39.5416 57.6667 38.825 57.6667C37.4311 57.6667 36.1869 58.7127 35.0926 60.8049Z" fill="#2828C7"/>
<path d="M37.5046 48.0892C37.5046 49.4515 36.4003 50.5559 35.038 50.5559C33.6757 50.5559 32.5713 49.4515 32.5713 48.0892C32.5713 46.7269 33.6757 45.6226 35.038 45.6226C36.4003 45.6226 37.5046 46.7269 37.5046 48.0892Z" fill="#2828C7"/>
<path d="M48.6052 48.0892C48.6052 49.4515 47.5008 50.5559 46.1385 50.5559C44.7762 50.5559 43.6719 49.4515 43.6719 48.0892C43.6719 46.7269 44.7762 45.6226 46.1385 45.6226C47.5008 45.6226 48.6052 46.7269 48.6052 48.0892Z" fill="#2828C7"/>
</svg>
