<svg width="418" height="235" viewBox="0 0 418 235" fill="none" xmlns="http://www.w3.org/2000/svg">
<path d="M0 9C0 4.02944 4.02944 0 9 0H99C103.971 0 108 4.02944 108 9V63C108 67.9706 103.971 72 99 72H9C4.02944 72 0 67.9706 0 63V9Z" fill="white"/>
<path fill-rule="evenodd" clip-rule="evenodd" d="M99 2H9C5.13401 2 2 5.13401 2 9V63C2 66.866 5.13401 70 9 70H99C102.866 70 106 66.866 106 63V9C106 5.13401 102.866 2 99 2ZM9 0C4.02944 0 0 4.02944 0 9V63C0 67.9706 4.02944 72 9 72H99C103.971 72 108 67.9706 108 63V9C108 4.02944 103.971 0 99 0H9Z" fill="#C5CAD5"/>
<path d="M36 91C36 86.0294 40.0294 82 45 82H98C102.971 82 107 86.0294 107 91V145C107 149.971 102.971 154 98 154H45C40.0294 154 36 149.971 36 145V91Z" fill="white"/>
<path fill-rule="evenodd" clip-rule="evenodd" d="M98 84H45C41.134 84 38 87.134 38 91V145C38 148.866 41.134 152 45 152H98C101.866 152 105 148.866 105 145V91C105 87.134 101.866 84 98 84ZM45 82C40.0294 82 36 86.0294 36 91V145C36 149.971 40.0294 154 45 154H98C102.971 154 107 149.971 107 145V91C107 86.0294 102.971 82 98 82H45Z" fill="#C5CAD5"/>
<path d="M36 172C36 167.029 40.0294 163 45 163H98C102.971 163 107 167.029 107 172V226C107 230.971 102.971 235 98 235H45C40.0294 235 36 230.971 36 226V172Z" fill="white"/>
<path fill-rule="evenodd" clip-rule="evenodd" d="M98 165H45C41.134 165 38 168.134 38 172V226C38 229.866 41.134 233 45 233H98C101.866 233 105 229.866 105 226V172C105 168.134 101.866 165 98 165ZM45 163C40.0294 163 36 167.029 36 172V226C36 230.971 40.0294 235 45 235H98C102.971 235 107 230.971 107 226V172C107 167.029 102.971 163 98 163H45Z" fill="#C5CAD5"/>
<path d="M133.92 17.6641C127.536 17.6641 123.024 23.5681 123.024 32.784C123.024 42.0481 127.536 47.9521 133.92 47.9521C140.304 47.9521 144.816 42.0481 144.816 32.784C144.816 23.5681 140.304 17.6641 133.92 17.6641ZM133.92 21.2641C138.096 21.2641 141.024 25.7761 141.024 32.784C141.024 39.8401 138.096 44.4481 133.92 44.4481C129.696 44.4481 126.816 39.8401 126.816 32.784C126.816 25.7761 129.696 21.2641 133.92 21.2641ZM151.728 14.3521V57.7441H155.76V14.3521H151.728ZM154.8 31.6801V35.0401H162.864V31.6801H154.8Z" fill="#434343"/>
<path d="M167.948 44.0641V47.3761H170.828C176.204 47.3761 181.1 47.2321 187.1 46.1761L186.764 42.8641C180.908 43.8721 176.108 44.0641 170.828 44.0641H167.948ZM167.852 19.0561V22.3201H180.236V31.0561H167.948V45.3121H171.836V34.3201H184.124V19.0561H167.852ZM199.532 14.3521V57.7441H203.372V14.3521H199.532ZM192.188 31.4881V34.7521H200.54V31.4881H192.188ZM189.692 15.312V55.5361H193.436V15.312H189.692Z" fill="#434343"/>
<path d="M217.96 48.9601C217.672 50.0801 217.304 51.2961 216.856 52.6081C216.408 53.9201 215.928 55.2161 215.416 56.4961C214.904 57.8081 214.376 59.0401 213.832 60.1921H210.136C210.456 58.9441 210.76 57.6161 211.048 56.2081C211.368 54.8321 211.656 53.4721 211.912 52.1281C212.168 50.7841 212.376 49.5521 212.536 48.4321H217.624L217.96 48.9601Z" fill="#434343"/>
<path d="M35.608 54H16.792V19.728H35.608V25.68H24.568V33.216H34.84V39.168H24.568V48H35.608V54Z" fill="#434343"/>
<path d="M61.7912 44.496C61.7912 46.512 61.3432 48.2721 60.4472 49.7761C59.5512 51.2801 58.1912 52.448 56.3672 53.28C54.5752 54.08 52.3032 54.4801 49.5512 54.4801C48.2712 54.4801 47.0872 54.4 45.9992 54.24C44.9112 54.08 43.8872 53.8561 42.9272 53.5681C41.9672 53.2481 41.0072 52.864 40.0472 52.416V45.648C41.6792 46.352 43.3432 47.0081 45.0392 47.6161C46.7672 48.1921 48.3992 48.48 49.9352 48.48C50.9272 48.48 51.7272 48.32 52.3352 48C52.9432 47.68 53.3912 47.248 53.6792 46.704C53.9672 46.16 54.1112 45.5361 54.1112 44.8321C54.1112 43.9681 53.8712 43.2321 53.3912 42.6241C52.9432 42.0161 52.2712 41.456 51.3752 40.944C50.4792 40.4001 49.3752 39.8561 48.0632 39.312C47.1032 38.8961 46.1592 38.416 45.2312 37.872C44.3032 37.328 43.4712 36.672 42.7352 35.904C41.9992 35.104 41.4072 34.144 40.9592 33.024C40.5432 31.904 40.3352 30.56 40.3352 28.992C40.3352 26.944 40.8152 25.2 41.7752 23.76C42.7352 22.288 44.0792 21.168 45.8072 20.4C47.5352 19.632 49.5512 19.248 51.8552 19.248C53.7432 19.248 55.4872 19.456 57.0872 19.872C58.7192 20.288 60.2712 20.88 61.7432 21.648L59.2952 27.312C57.8872 26.672 56.5432 26.176 55.2632 25.824C54.0152 25.472 52.7992 25.296 51.6152 25.296C50.8152 25.296 50.1432 25.44 49.5992 25.728C49.0552 26.016 48.6392 26.416 48.3512 26.9281C48.0952 27.4401 47.9672 28.048 47.9672 28.752C47.9672 29.552 48.1752 30.24 48.5912 30.816C49.0392 31.36 49.7272 31.904 50.6552 32.448C51.5832 32.96 52.7672 33.584 54.2072 34.32C55.8072 35.12 57.1672 35.968 58.2872 36.864C59.4392 37.728 60.3032 38.768 60.8792 39.984C61.4872 41.2 61.7912 42.704 61.7912 44.496Z" fill="#434343"/>
<path d="M81.1975 25.296C80.0455 25.296 79.0055 25.568 78.0775 26.112C77.1815 26.656 76.4135 27.4401 75.7735 28.4641C75.1335 29.456 74.6535 30.672 74.3335 32.112C74.0135 33.552 73.8535 35.168 73.8535 36.96C73.8535 39.392 74.1255 41.4721 74.6695 43.2001C75.2135 44.8961 76.0455 46.1921 77.1655 47.0881C78.2855 47.9841 79.7095 48.432 81.4375 48.432C82.8135 48.432 84.1575 48.272 85.4695 47.952C86.8135 47.632 88.2055 47.184 89.6455 46.608V52.7041C88.2375 53.3121 86.8135 53.76 85.3735 54.048C83.9335 54.336 82.3655 54.4801 80.6695 54.4801C77.2455 54.4801 74.4455 53.76 72.2695 52.32C70.0935 50.848 68.4775 48.8 67.4215 46.176C66.3975 43.52 65.8855 40.432 65.8855 36.912C65.8855 34.32 66.2215 31.952 66.8935 29.808C67.5655 27.632 68.5575 25.76 69.8695 24.192C71.1815 22.624 72.7815 21.408 74.6695 20.544C76.5895 19.68 78.7815 19.248 81.2455 19.248C82.8455 19.248 84.5255 19.472 86.2855 19.92C88.0775 20.336 89.6295 20.912 90.9415 21.648L88.4935 27.5521C87.3095 26.944 86.1095 26.416 84.8935 25.968C83.7095 25.52 82.4775 25.296 81.1975 25.296Z" fill="#434343"/>
<path d="M69.7499 199.221C67.9592 198.378 66.4055 197.825 65.0889 197.562C63.7722 197.246 62.5345 197.088 61.3759 197.088C59.9539 197.088 58.4792 197.536 56.9519 198.431C55.4772 199.326 54.1342 200.432 52.9229 201.749V192.822C54.1342 191.453 55.5299 190.426 57.1099 189.741C58.6899 189.004 60.4279 188.635 62.3239 188.635C63.7985 188.635 65.2732 188.793 66.7479 189.109C68.2225 189.372 70.1185 190.031 72.4359 191.084C74.2792 191.927 75.8592 192.506 77.1759 192.822C78.5452 193.085 79.7829 193.217 80.8889 193.217C82.2582 193.217 83.6802 192.769 85.1549 191.874C86.6822 190.979 88.0779 189.873 89.3419 188.556V197.483C88.0779 198.852 86.6559 199.906 85.0759 200.643C83.5485 201.328 81.8105 201.67 79.8619 201.67C78.4399 201.67 76.9915 201.538 75.5169 201.275C74.0422 200.959 72.1199 200.274 69.7499 199.221Z" fill="#434343"/>
<path d="M75.6799 136H67.8559V116.176C67.8559 115.632 67.8559 114.96 67.8559 114.16C67.8879 113.36 67.9039 112.528 67.9039 111.664C67.9359 110.8 67.9679 110.032 67.9999 109.36C67.7439 109.552 67.4079 109.904 66.9919 110.416C66.6079 110.928 66.2079 111.36 65.7919 111.712L62.1919 114.88L58.2559 110.512L68.9599 101.728H75.6799V136Z" fill="#434343"/>
<path d="M135.6 100.864V101.296C135.6 113.152 130.944 122.848 117.216 129.568L119.376 132.688C135.024 125.008 139.44 113.392 139.44 100.864H135.6ZM119.568 100.864V104.08H137.616V100.864H119.568ZM135.024 111.616L117.408 112.768L118.08 116.272L135.024 114.688V111.616ZM147.984 96.3521V139.744H151.968V96.3521H147.984Z" fill="#434343"/>
<path d="M184.977 113.968V121.312H188.961V113.968H184.977ZM186.993 98.0801C180.561 98.0801 176.097 101.584 176.097 106.864C176.097 112.144 180.561 115.696 186.993 115.696C193.329 115.696 197.841 112.144 197.841 106.864C197.841 101.584 193.329 98.0801 186.993 98.0801ZM186.993 101.152C191.121 101.152 194.097 103.456 194.097 106.864C194.097 110.272 191.121 112.576 186.993 112.576C182.769 112.576 179.793 110.272 179.793 106.864C179.793 103.456 182.769 101.152 186.993 101.152ZM204.513 96.3521V128.8H208.497V96.3521H204.513ZM180.225 135.52V138.784H209.889V135.52H180.225ZM180.225 126.496V136.816H184.257V126.496H180.225ZM173.793 123.136C181.809 123.136 192.129 122.848 201.345 121.456L201.057 118.576C192.081 119.632 181.473 119.824 173.217 119.872L173.793 123.136Z" fill="#434343"/>
<path d="M226.445 99.5201V102.112C226.445 104.992 223.469 108.976 218.429 110.608L220.109 113.584C226.205 111.568 229.469 106.432 229.469 102.112V99.5201H226.445ZM227.501 99.5201V101.872C227.501 105.856 230.525 111.04 236.717 113.008L238.013 109.984C233.261 108.4 230.381 104.512 230.381 101.872V99.5201H227.501ZM243.101 99.5201V101.872C243.101 104.704 240.221 108.448 235.469 109.984L236.717 113.008C242.909 111.088 245.981 106 245.981 101.872V99.5201H243.101ZM244.061 99.5201V102.112C244.061 106.864 247.277 111.664 253.325 113.584L255.053 110.608C249.965 109.12 247.037 105.424 247.037 102.112V99.5201H244.061ZM219.677 97.9361V101.152H235.901V97.9361H219.677ZM237.581 97.9361V101.152H253.805V97.9361H237.581ZM217.133 117.856V121.072H256.493V117.856H217.133ZM234.749 113.44V120.352H238.733V113.44H234.749ZM221.453 125.68V128.896H247.421V139.744H251.405V125.68H221.453Z" fill="#434343"/>
<path d="M278.905 113.2V116.512H287.113V113.2H278.905ZM294.361 96.3521V139.744H298.201V96.3521H294.361ZM285.769 97.2641V137.584H289.561V97.2641H285.769ZM271.081 99.952C265.465 99.952 261.865 105.76 261.865 115.072C261.865 124.384 265.465 130.192 271.081 130.192C276.697 130.192 280.345 124.384 280.345 115.072C280.345 105.76 276.697 99.952 271.081 99.952ZM271.081 103.648C274.537 103.648 276.697 108.064 276.697 115.072C276.697 122.08 274.537 126.496 271.081 126.496C267.673 126.496 265.513 122.08 265.513 115.072C265.513 108.064 267.673 103.648 271.081 103.648Z" fill="#434343"/>
<path d="M328.762 123.04V125.392C328.762 129.568 325.498 134.224 320.026 136.192L322.042 139.168C328.282 136.768 331.834 131.056 331.834 125.392V123.04H328.762ZM329.626 123.04V125.392C329.626 131.152 332.458 137.104 338.698 139.552L340.378 136.528C335.194 134.416 332.602 129.76 332.602 125.392V123.04H329.626ZM344.794 123.04V125.392C344.794 129.136 342.154 134.176 337.018 136.528L338.698 139.552C344.89 136.912 347.77 130.48 347.77 125.392V123.04H344.794ZM345.61 123.04V125.392C345.61 131.392 349.066 136.864 355.402 139.168L357.418 136.192C351.898 134.32 348.682 129.856 348.682 125.392V123.04H345.61ZM349.498 96.4001V121.168H353.53V96.4001H349.498ZM330.25 98.896C323.674 98.896 318.922 103.024 318.922 109.024C318.922 115.024 323.674 119.104 330.25 119.104C336.826 119.104 341.53 115.024 341.53 109.024C341.53 103.024 336.826 98.896 330.25 98.896ZM330.25 102.208C334.57 102.208 337.69 104.992 337.69 109.024C337.69 113.056 334.57 115.792 330.25 115.792C325.93 115.792 322.81 113.056 322.81 109.024C322.81 104.992 325.93 102.208 330.25 102.208Z" fill="#434343"/>
<path d="M367.399 109.36V112.624H396.871V109.36H367.399ZM362.071 118.432V121.696H401.431V118.432H362.071ZM367.399 97.9361V110.992H371.335V97.9361H367.399ZM367.111 135.424V138.688H397.111V135.424H367.111ZM367.111 126.016V136.288H371.047V126.016H367.111Z" fill="#434343"/>
<path d="M137.968 197.848V204.52H141.904V197.848H137.968ZM120.352 195.64V198.856H159.568V195.64H120.352ZM125.44 178.792V191.992H154.48V178.792H125.44ZM150.592 181.96V188.824H129.376V181.96H150.592ZM125.104 203.08V206.152H150.64V209.944H125.2V218.104H129.136V212.824H154.576V203.08H125.104ZM125.2 217.144V220.264H155.872V217.144H125.2Z" fill="#434343"/>
<path d="M196.236 177.352V199.48H200.22V177.352H196.236ZM182.508 179.464V181.432C182.508 188.92 176.46 194.632 165.228 197.224L166.62 200.488C179.292 197.416 186.828 190.408 186.828 179.464H182.508ZM167.484 179.464V182.728H184.332V179.464H167.484ZM185.292 183.592V186.76H196.908V183.592H185.292ZM184.908 191.896V195.016H196.668V191.896H184.908ZM172.284 201.496V204.712H196.284V209.08H172.428V219.064H176.364V212.152H200.22V201.496H172.284ZM172.428 217.144V220.312H201.66V217.144H172.428Z" fill="#434343"/>
<path d="M221.181 211.912V215.224H260.493V211.912H221.181ZM238.749 200.68V212.824H242.733V200.68H238.749ZM225.741 180.952V201.4H255.693V180.952H225.741ZM251.853 184.168V198.184H229.629V184.168H251.853Z" fill="#434343"/>
<path d="M297.786 183.832V187.144H305.322V183.832H297.786ZM297.786 193.048V196.36H305.322V193.048H297.786ZM277.434 179.896C270.906 179.896 266.106 184.12 266.106 190.168C266.106 196.168 270.906 200.344 277.434 200.344C283.962 200.344 288.762 196.168 288.762 190.168C288.762 184.12 283.962 179.896 277.434 179.896ZM277.434 183.256C281.754 183.256 284.874 186.088 284.874 190.168C284.874 194.248 281.754 197.032 277.434 197.032C273.114 197.032 269.994 194.248 269.994 190.168C269.994 186.088 273.114 183.256 277.434 183.256ZM295.002 177.352V203.032H298.986V177.352H295.002ZM285.162 204.424C276.33 204.424 270.906 207.448 270.906 212.536C270.906 217.672 276.33 220.648 285.162 220.648C293.994 220.648 299.418 217.672 299.418 212.536C299.418 207.448 293.994 204.424 285.162 204.424ZM285.162 207.64C291.594 207.64 295.53 209.416 295.53 212.536C295.53 215.656 291.594 217.48 285.162 217.48C278.73 217.48 274.794 215.656 274.794 212.536C274.794 209.416 278.73 207.64 285.162 207.64Z" fill="#434343"/>
<path d="M323.558 180.472C316.79 180.472 311.894 184.648 311.894 190.696C311.894 196.792 316.79 200.968 323.558 200.968C330.326 200.968 335.174 196.792 335.174 190.696C335.174 184.648 330.326 180.472 323.558 180.472ZM323.558 183.928C328.022 183.928 331.286 186.664 331.286 190.696C331.286 194.728 328.022 197.512 323.558 197.512C319.046 197.512 315.782 194.728 315.782 190.696C315.782 186.664 319.046 183.928 323.558 183.928ZM340.838 177.304V220.792H344.822V177.304H340.838ZM310.262 211.288C317.99 211.288 328.598 211.24 338.342 209.368L338.006 206.44C328.55 207.928 317.606 207.976 309.686 207.976L310.262 211.288Z" fill="#434343"/>
<path d="M385.319 181.864V182.296C385.319 194.152 380.663 203.848 366.935 210.568L369.095 213.688C384.743 206.008 389.159 194.392 389.159 181.864H385.319ZM369.287 181.864V185.08H387.335V181.864H369.287ZM384.743 192.616L367.127 193.768L367.799 197.272L384.743 195.688V192.616ZM397.703 177.352V220.744H401.687V177.352H397.703Z" fill="#434343"/>
<path d="M416.275 206.824H412.675L411.475 182.728H417.475L416.275 206.824ZM411.139 214.168C411.139 212.92 411.459 212.04 412.099 211.528C412.739 211.016 413.523 210.76 414.451 210.76C415.347 210.76 416.115 211.016 416.755 211.528C417.395 212.04 417.715 212.92 417.715 214.168C417.715 215.416 417.395 216.312 416.755 216.856C416.115 217.4 415.347 217.672 414.451 217.672C413.523 217.672 412.739 217.4 412.099 216.856C411.459 216.312 411.139 215.416 411.139 214.168Z" fill="#434343"/>
</svg>
