<svg width="79" height="81" viewBox="0 0 79 81" fill="none" xmlns="http://www.w3.org/2000/svg">
<path d="M16.7536 36L10.4714 31.8758C13.1937 26.1653 15.7589 22.2526 18.1671 20.1376C20.6101 17.9873 23.7512 16.9122 27.5903 16.9122C30.7313 16.9122 35.1638 18.1988 40.8875 20.7721C46.1226 23.1338 49.9093 24.3147 52.2477 24.3147C54.5162 24.3147 56.3485 23.7683 57.7446 22.6756C59.2104 21.6181 60.8158 19.6088 62.5609 16.6478L69.0001 20.4548C67.7436 23.0281 66.4523 25.2312 65.1261 27.0642C63.8348 28.8972 62.4562 30.4129 60.9903 31.6114C59.5245 32.7747 57.954 33.6383 56.2787 34.2023C54.6384 34.731 52.8236 34.9954 50.8342 34.9954C48.1119 34.9954 44.5695 34.026 40.2069 32.0873L33.7154 29.3378C30.9931 28.1746 28.6722 27.5929 26.7527 27.5929C23.0183 27.5929 19.6852 30.3953 16.7536 36Z" fill="#2828C7"/>
<circle cx="16.6081" cy="6.60807" r="6.60807" fill="#2828C7"/>
<circle cx="46.3439" cy="6.60807" r="6.60807" fill="#2828C7"/>
<path d="M10.908 66.076C11.484 66.076 12.012 66.016 12.492 65.896C12.996 65.776 13.512 65.632 14.04 65.464V69.46C13.44 69.7 12.732 69.904 11.916 70.072C11.124 70.264 10.188 70.36 9.108 70.36C7.956 70.36 6.924 70.168 6.012 69.784C5.124 69.4 4.428 68.74 3.924 67.804C3.42 66.844 3.168 65.524 3.168 63.844V54.376H0.828V52.108L3.636 50.308L5.22 46.168H8.928V50.344H13.824V54.376H8.928V63.844C8.928 64.588 9.108 65.152 9.468 65.536C9.828 65.896 10.308 66.076 10.908 66.076ZM23.3252 50.344V70H17.5652V50.344H23.3252ZM20.4812 42.64C21.3212 42.64 22.0412 42.832 22.6412 43.216C23.2412 43.576 23.5412 44.26 23.5412 45.268C23.5412 46.252 23.2412 46.936 22.6412 47.32C22.0412 47.704 21.3212 47.896 20.4812 47.896C19.6172 47.896 18.8852 47.704 18.2852 47.32C17.6852 46.936 17.3852 46.252 17.3852 45.268C17.3852 44.26 17.6852 43.576 18.2852 43.216C18.8852 42.832 19.6172 42.64 20.4812 42.64ZM33.9775 70H28.2175V42.64H33.9775V70ZM44.7019 70.36C42.7099 70.36 41.0779 69.508 39.8059 67.804C38.5339 66.076 37.8979 63.544 37.8979 60.208C37.8979 56.848 38.5459 54.304 39.8419 52.576C41.1379 50.848 42.8179 49.984 44.8819 49.984C45.7459 49.984 46.4899 50.116 47.1139 50.38C47.7619 50.62 48.3139 50.956 48.7699 51.388C49.2499 51.82 49.6579 52.312 49.9939 52.864H50.1379C50.0659 52.48 49.9939 51.928 49.9219 51.208C49.8499 50.464 49.8139 49.708 49.8139 48.94V42.64H55.5739V70H51.2179L50.0299 67.444H49.8139C49.5019 67.972 49.1179 68.464 48.6619 68.92C48.2059 69.352 47.6539 69.7 47.0059 69.964C46.3579 70.228 45.5899 70.36 44.7019 70.36ZM46.8979 66.076C48.0979 66.076 48.9499 65.644 49.4539 64.78C49.9819 63.892 50.2459 62.572 50.2459 60.82V60.244C50.2459 58.324 50.0059 56.86 49.5259 55.852C49.0459 54.844 48.1459 54.34 46.8259 54.34C45.8899 54.34 45.1339 54.856 44.5579 55.888C44.0059 56.896 43.7299 58.36 43.7299 60.28C43.7299 62.2 44.0059 63.652 44.5579 64.636C45.1339 65.596 45.9139 66.076 46.8979 66.076ZM68.4838 49.984C70.2358 49.984 71.7478 50.332 73.0198 51.028C74.2918 51.724 75.2758 52.732 75.9718 54.052C76.6678 55.372 77.0158 56.992 77.0158 58.912V61.504H65.3158C65.3638 63.016 65.7478 64.204 66.4678 65.068C67.2118 65.932 68.2678 66.364 69.6358 66.364C70.8358 66.364 71.9158 66.244 72.8758 66.004C73.8598 65.74 74.8678 65.344 75.8998 64.816V68.956C75.0118 69.436 74.0398 69.784 72.9838 70C71.9518 70.24 70.6678 70.36 69.1318 70.36C67.2598 70.36 65.5918 70 64.1278 69.28C62.6878 68.536 61.5478 67.42 60.7078 65.932C59.8918 64.444 59.4838 62.572 59.4838 60.316C59.4838 58.012 59.8558 56.104 60.5998 54.592C61.3678 53.056 62.4238 51.904 63.7678 51.136C65.1358 50.368 66.7078 49.984 68.4838 49.984ZM68.5918 53.8C67.7278 53.8 67.0078 54.136 66.4318 54.808C65.8558 55.48 65.5198 56.524 65.4238 57.94H71.7238C71.7238 57.148 71.6038 56.44 71.3638 55.816C71.1238 55.192 70.7758 54.7 70.3198 54.34C69.8638 53.98 69.2878 53.8 68.5918 53.8Z" fill="#2828C7"/>
</svg>
