<svg width="161" height="94" viewBox="0 0 161 94" fill="none" xmlns="http://www.w3.org/2000/svg">
<path d="M18.5479 10.504V13.416H20.7599C26.1359 13.416 29.4119 13.388 33.1359 12.828L32.8279 9.97196C29.1599 10.476 26.0519 10.504 20.7599 10.504H18.5479ZM18.5479 1.59996V12.324H22.2439V4.48396H31.0079V1.59996H18.5479ZM21.0959 6.07996V8.85196H30.2519V6.07996H21.0959ZM34.9279 0.563965V14.06H38.6799V0.563965H34.9279ZM21.3759 15.068V17.868H34.9839V19.324H21.4319V24.672H25.0719V21.9H38.6799V15.068H21.3759ZM21.4319 23.496V26.324H39.3239V23.496H21.4319Z" fill="white"/>
<path d="M44.1097 17.252V20.304H46.2097C50.9417 20.304 54.0497 20.164 57.5217 19.52L57.1577 16.524C53.7977 17.14 50.8017 17.252 46.2097 17.252H44.1097ZM44.1097 2.85996V18.4H47.8337V5.82796H55.8417V2.85996H44.1097ZM60.9377 0.563965V26.576H64.6617V0.563965H60.9377ZM54.5817 9.49597V12.52H62.5057V9.49597H54.5817Z" fill="white"/>
<path d="M68.5235 16.328C68.5235 14.7973 68.6448 13.304 68.8875 11.848C69.1488 10.392 69.5595 9.0013 70.1195 7.67596C70.6795 6.35063 71.3981 5.12796 72.2755 4.00796H75.9435C75.1595 5.1653 74.5061 6.41596 73.9835 7.75996C73.4608 9.10396 73.0688 10.4946 72.8075 11.932C72.5648 13.3693 72.4435 14.8253 72.4435 16.3C72.4435 17.7373 72.5648 19.1746 72.8075 20.612C73.0688 22.0306 73.4608 23.3933 73.9835 24.7C74.5061 26.0253 75.1595 27.2666 75.9435 28.424H72.2755C71.3981 27.3226 70.6795 26.1186 70.1195 24.812C69.5595 23.524 69.1488 22.1613 68.8875 20.724C68.6448 19.2866 68.5235 17.8213 68.5235 16.328Z" fill="white"/>
<path d="M85.187 20.948C85.635 20.948 86.0457 20.9013 86.419 20.808C86.811 20.7146 87.2123 20.6026 87.623 20.472V23.58C87.1563 23.7666 86.6056 23.9253 85.971 24.056C85.355 24.2053 84.627 24.28 83.787 24.28C82.891 24.28 82.0883 24.1306 81.379 23.832C80.6883 23.5333 80.147 23.02 79.755 22.292C79.363 21.5453 79.167 20.5186 79.167 19.212V11.848H77.347V10.084L79.531 8.68396L80.763 5.46396H83.647V8.71197H87.455V11.848H83.647V19.212C83.647 19.7906 83.787 20.2293 84.067 20.528C84.347 20.808 84.7203 20.948 85.187 20.948Z" fill="white"/>
<path d="M94.8448 8.71197V24H90.3648V8.71197H94.8448ZM92.6328 2.71996C93.2861 2.71996 93.8461 2.8693 94.3128 3.16796C94.7795 3.44796 95.0128 3.97996 95.0128 4.76396C95.0128 5.5293 94.7795 6.0613 94.3128 6.35996C93.8461 6.65863 93.2861 6.80796 92.6328 6.80796C91.9608 6.80796 91.3915 6.65863 90.9248 6.35996C90.4581 6.0613 90.2248 5.5293 90.2248 4.76396C90.2248 3.97996 90.4581 3.44796 90.9248 3.16796C91.3915 2.8693 91.9608 2.71996 92.6328 2.71996Z" fill="white"/>
<path d="M103.13 24H98.6499V2.71996H103.13V24Z" fill="white"/>
<path d="M111.471 24.28C109.922 24.28 108.652 23.6173 107.663 22.292C106.674 20.948 106.179 18.9786 106.179 16.384C106.179 13.7706 106.683 11.792 107.691 10.448C108.699 9.10396 110.006 8.43196 111.611 8.43196C112.283 8.43196 112.862 8.53463 113.347 8.73997C113.851 8.92663 114.28 9.18796 114.635 9.52396C115.008 9.85996 115.326 10.2426 115.587 10.672H115.699C115.643 10.3733 115.587 9.94396 115.531 9.38396C115.475 8.8053 115.447 8.2173 115.447 7.61996V2.71996H119.927V24H116.539L115.615 22.012H115.447C115.204 22.4226 114.906 22.8053 114.551 23.16C114.196 23.496 113.767 23.7666 113.263 23.972C112.759 24.1773 112.162 24.28 111.471 24.28ZM113.179 20.948C114.112 20.948 114.775 20.612 115.167 19.94C115.578 19.2493 115.783 18.2226 115.783 16.86V16.412C115.783 14.9186 115.596 13.78 115.223 12.996C114.85 12.212 114.15 11.82 113.123 11.82C112.395 11.82 111.807 12.2213 111.359 13.024C110.93 13.808 110.715 14.9466 110.715 16.44C110.715 17.9333 110.93 19.0626 111.359 19.828C111.807 20.5746 112.414 20.948 113.179 20.948Z" fill="white"/>
<path d="M129.968 8.43196C131.331 8.43196 132.507 8.70263 133.496 9.24397C134.486 9.7853 135.251 10.5693 135.792 11.596C136.334 12.6226 136.604 13.8826 136.604 15.376V17.392H127.504C127.541 18.568 127.84 19.492 128.4 20.164C128.979 20.836 129.8 21.172 130.864 21.172C131.798 21.172 132.638 21.0786 133.384 20.892C134.15 20.6866 134.934 20.3786 135.736 19.968V23.188C135.046 23.5613 134.29 23.832 133.468 24C132.666 24.1866 131.667 24.28 130.472 24.28C129.016 24.28 127.719 24 126.58 23.44C125.46 22.8613 124.574 21.9933 123.92 20.836C123.285 19.6786 122.968 18.2226 122.968 16.468C122.968 14.676 123.257 13.192 123.836 12.016C124.434 10.8213 125.255 9.9253 126.3 9.32796C127.364 8.73063 128.587 8.43196 129.968 8.43196ZM130.052 11.4C129.38 11.4 128.82 11.6613 128.372 12.184C127.924 12.7066 127.663 13.5186 127.588 14.62H132.488C132.488 14.004 132.395 13.4533 132.208 12.968C132.021 12.4826 131.751 12.1 131.396 11.82C131.042 11.54 130.594 11.4 130.052 11.4Z" fill="white"/>
<path d="M145.91 16.328C145.91 17.8213 145.78 19.2866 145.518 20.724C145.276 22.1613 144.884 23.524 144.342 24.812C143.801 26.1186 143.082 27.3226 142.186 28.424H138.518C139.302 27.2666 139.946 26.0253 140.45 24.7C140.973 23.3933 141.365 22.0306 141.626 20.612C141.888 19.1746 142.018 17.7373 142.018 16.3C142.018 14.8253 141.888 13.3693 141.626 11.932C141.365 10.4946 140.973 9.10396 140.45 7.75996C139.946 6.41596 139.293 5.1653 138.49 4.00796H142.186C143.082 5.12796 143.801 6.35063 144.342 7.67596C144.884 9.0013 145.276 10.392 145.518 11.848C145.78 13.304 145.91 14.7973 145.91 16.328Z" fill="white"/>
<path d="M74.3883 82.8862C66.4722 79.1816 59.6038 76.7505 53.7831 75.5928C47.9624 74.2036 42.491 73.509 37.3688 73.509C31.0824 73.509 24.5633 75.477 17.8113 79.4132C11.2921 83.3493 5.35503 88.2116 0 94V54.7545C5.35503 48.7345 11.5249 44.2196 18.5098 41.2096C25.4946 37.9681 33.1779 36.3473 41.5596 36.3473C48.0788 36.3473 54.598 37.0419 61.1171 38.4311C67.6363 39.5888 76.0181 42.483 86.2625 47.1138C94.4114 50.8184 101.396 53.3653 107.217 54.7545C113.27 55.9122 118.742 56.491 123.631 56.491C129.685 56.491 135.971 54.523 142.49 50.5868C149.242 46.6507 155.412 41.7884 161 36V75.2455C155.412 81.2655 149.126 85.8962 142.141 89.1377C135.389 92.1477 127.706 93.6527 119.091 93.6527C112.805 93.6527 106.402 93.0739 99.8829 91.9162C93.3637 90.527 84.8655 87.517 74.3883 82.8862Z" fill="white"/>
</svg>
