<svg width="132" height="200" viewBox="0 0 132 200" fill="none" xmlns="http://www.w3.org/2000/svg">
<path d="M0 21.9436C0 9.82449 9.82447 0 21.9436 0C34.0627 0 43.8872 9.82448 43.8872 21.9436V200H0V21.9436Z" fill="white"/>
<path d="M0 63.323H131.661V200H0V63.323Z" fill="white"/>
<path d="M87.7734 21.9437C87.7734 9.82461 97.5979 0.00012207 109.717 0.00012207C121.836 0.00012207 131.661 9.8246 131.661 21.9437V200H87.7734V21.9437Z" fill="white"/>
<path d="M46.5886 140.387L38.2441 134.909C41.8601 127.324 45.2674 122.126 48.4662 119.317C51.7112 116.461 55.8835 115.033 60.9829 115.033C65.1552 115.033 71.0427 116.742 78.6454 120.16C85.5992 123.297 90.6291 124.865 93.7351 124.865C96.7484 124.865 99.1822 124.14 101.037 122.688C102.984 121.284 105.116 118.615 107.434 114.682L115.987 119.738C114.318 123.156 112.603 126.083 110.841 128.518C109.126 130.952 107.295 132.966 105.348 134.558C103.401 136.103 101.315 137.25 99.0895 137.999C96.9106 138.701 94.5 139.053 91.8576 139.053C88.2416 139.053 83.5363 137.765 77.7415 135.19L69.1188 131.538C65.5029 129.992 62.42 129.22 59.8703 129.22C54.91 129.22 50.4827 132.942 46.5886 140.387Z" fill="#2828C7"/>
<path d="M55.173 95.1412C55.173 99.9888 51.2432 103.919 46.3956 103.919C41.548 103.919 37.6182 99.9888 37.6182 95.1412C37.6182 90.2936 41.548 86.3638 46.3956 86.3638C51.2432 86.3638 55.173 90.2936 55.173 95.1412Z" fill="#2828C7"/>
<path d="M94.6706 95.1412C94.6706 99.9888 90.7408 103.919 85.8932 103.919C81.0455 103.919 77.1157 99.9888 77.1157 95.1412C77.1157 90.2936 81.0455 86.3638 85.8932 86.3638C90.7408 86.3638 94.6706 90.2936 94.6706 95.1412Z" fill="#2828C7"/>
</svg>
