<svg width="551" height="200" viewBox="0 0 551 200" fill="none" xmlns="http://www.w3.org/2000/svg">
<path d="M224 21.9436C224 9.82449 233.824 0 245.944 0C258.063 0 267.887 9.82448 267.887 21.9436V200H224V21.9436Z" fill="white"/>
<path d="M224 63.323H355.661V200H224V63.323Z" fill="white"/>
<path d="M311.773 21.9437C311.773 9.82461 321.598 0.00012207 333.717 0.00012207C345.836 0.00012207 355.661 9.8246 355.661 21.9437V200H311.773V21.9437Z" fill="white"/>
<path d="M270.589 140.387L262.244 134.909C265.86 127.324 269.267 122.126 272.466 119.317C275.711 116.461 279.883 115.033 284.983 115.033C289.155 115.033 295.043 116.742 302.645 120.16C309.599 123.297 314.629 124.865 317.735 124.865C320.748 124.865 323.182 124.14 325.037 122.688C326.984 121.284 329.116 118.615 331.434 114.682L339.987 119.738C338.318 123.156 336.603 126.083 334.841 128.518C333.126 130.952 331.295 132.966 329.348 134.558C327.401 136.103 325.315 137.25 323.089 137.999C320.911 138.701 318.5 139.053 315.858 139.053C312.242 139.053 307.536 137.765 301.741 135.19L293.119 131.538C289.503 129.992 286.42 129.22 283.87 129.22C278.91 129.22 274.483 132.942 270.589 140.387Z" fill="#2828C7"/>
<path d="M279.173 95.1412C279.173 99.9888 275.243 103.919 270.396 103.919C265.548 103.919 261.618 99.9888 261.618 95.1412C261.618 90.2936 265.548 86.3638 270.396 86.3638C275.243 86.3638 279.173 90.2936 279.173 95.1412Z" fill="#2828C7"/>
<path d="M318.671 95.1412C318.671 99.9888 314.741 103.919 309.893 103.919C305.046 103.919 301.116 99.9888 301.116 95.1412C301.116 90.2936 305.046 86.3638 309.893 86.3638C314.741 86.3638 318.671 90.2936 318.671 95.1412Z" fill="#2828C7"/>
<path d="M32.0001 79.2C29.6001 79.2 27.4334 79.7667 25.5001 80.9C23.6334 82.0333 22.0334 83.6667 20.7001 85.8C19.3668 87.8667 18.3668 90.4 17.7001 93.4C17.0334 96.4 16.7001 99.7667 16.7001 103.5C16.7001 108.567 17.2668 112.9 18.4001 116.5C19.5334 120.033 21.2668 122.733 23.6001 124.6C25.9334 126.467 28.9001 127.4 32.5001 127.4C35.3668 127.4 38.1668 127.067 40.9001 126.4C43.7001 125.733 46.6001 124.8 49.6001 123.6V136.3C46.6668 137.567 43.7001 138.5 40.7001 139.1C37.7001 139.7 34.4334 140 30.9001 140C23.7668 140 17.9334 138.5 13.4001 135.5C8.86676 132.433 5.5001 128.167 3.3001 122.7C1.16676 117.167 0.100098 110.733 0.100098 103.4C0.100098 98 0.800097 93.0667 2.2001 88.6C3.6001 84.0667 5.66676 80.1667 8.4001 76.9C11.1334 73.6333 14.4668 71.1 18.4001 69.3C22.4001 67.5 26.9668 66.6 32.1001 66.6C35.4334 66.6 38.9334 67.0667 42.6001 68C46.3334 68.8667 49.5668 70.0667 52.3001 71.6L47.2001 83.9C44.7334 82.6333 42.2334 81.5333 39.7001 80.6C37.2334 79.6667 34.6668 79.2 32.0001 79.2Z" fill="white"/>
<path d="M85.6517 128.1C87.2517 128.1 88.7183 127.933 90.0517 127.6C91.4517 127.267 92.885 126.867 94.3517 126.4V137.5C92.685 138.167 90.7183 138.733 88.4517 139.2C86.2517 139.733 83.6517 140 80.6517 140C77.4517 140 74.585 139.467 72.0517 138.4C69.585 137.333 67.6517 135.5 66.2517 132.9C64.8517 130.233 64.1517 126.567 64.1517 121.9V95.6H57.6517V89.3L65.4517 84.3L69.8517 72.8H80.1517V84.4H93.7517V95.6H80.1517V121.9C80.1517 123.967 80.6517 125.533 81.6517 126.6C82.6517 127.6 83.985 128.1 85.6517 128.1Z" fill="white"/>
<path d="M134.144 83.4C135.011 83.4 135.944 83.4333 136.944 83.5C137.944 83.5667 138.711 83.6667 139.244 83.8L137.944 97.8C137.411 97.6667 136.711 97.5667 135.844 97.5C134.977 97.3667 133.977 97.3 132.844 97.3C131.377 97.3 129.877 97.5667 128.344 98.1C126.877 98.5667 125.511 99.3333 124.244 100.4C123.044 101.467 122.044 102.9 121.244 104.7C120.511 106.433 120.144 108.6 120.144 111.2V139H104.144V84.4H116.144L118.544 93.6H119.344C120.344 91.7333 121.577 90.0333 123.044 88.5C124.511 86.9667 126.177 85.7333 128.044 84.8C129.977 83.8667 132.011 83.4 134.144 83.4Z" fill="white"/>
<path d="M163.503 139H147.503V63H163.503V139Z" fill="white"/>
<path d="M408.548 55.504V58.416H410.76C416.136 58.416 419.412 58.388 423.136 57.828L422.828 54.972C419.16 55.476 416.052 55.504 410.76 55.504H408.548ZM408.548 46.6V57.324H412.244V49.484H421.008V46.6H408.548ZM411.096 51.08V53.852H420.252V51.08H411.096ZM424.928 45.564V59.06H428.68V45.564H424.928ZM411.376 60.068V62.868H424.984V64.324H411.432V69.672H415.072V66.9H428.68V60.068H411.376ZM411.432 68.496V71.324H429.324V68.496H411.432Z" fill="white"/>
<path d="M434.11 62.252V65.304H436.21C440.942 65.304 444.05 65.164 447.522 64.52L447.158 61.524C443.798 62.14 440.802 62.252 436.21 62.252H434.11ZM434.11 47.86V63.4H437.834V50.828H445.842V47.86H434.11ZM450.938 45.564V71.576H454.662V45.564H450.938ZM444.582 54.496V57.52H452.506V54.496H444.582Z" fill="white"/>
<path d="M458.523 61.328C458.523 59.7973 458.645 58.304 458.887 56.848C459.149 55.392 459.559 54.0013 460.119 52.676C460.679 51.3506 461.398 50.128 462.275 49.008H465.943C465.159 50.1653 464.506 51.416 463.983 52.76C463.461 54.104 463.069 55.4946 462.807 56.932C462.565 58.3693 462.443 59.8253 462.443 61.3C462.443 62.7373 462.565 64.1746 462.807 65.612C463.069 67.0306 463.461 68.3933 463.983 69.7C464.506 71.0253 465.159 72.2666 465.943 73.424H462.275C461.398 72.3226 460.679 71.1186 460.119 69.812C459.559 68.524 459.149 67.1613 458.887 65.724C458.645 64.2866 458.523 62.8213 458.523 61.328Z" fill="white"/>
<path d="M475.187 65.948C475.635 65.948 476.046 65.9013 476.419 65.808C476.811 65.7146 477.212 65.6026 477.623 65.472V68.58C477.156 68.7666 476.606 68.9253 475.971 69.056C475.355 69.2053 474.627 69.28 473.787 69.28C472.891 69.28 472.088 69.1306 471.379 68.832C470.688 68.5333 470.147 68.02 469.755 67.292C469.363 66.5453 469.167 65.5186 469.167 64.212V56.848H467.347V55.084L469.531 53.684L470.763 50.464H473.647V53.712H477.455V56.848H473.647V64.212C473.647 64.7906 473.787 65.2293 474.067 65.528C474.347 65.808 474.72 65.948 475.187 65.948Z" fill="white"/>
<path d="M484.845 53.712V69H480.365V53.712H484.845ZM482.633 47.72C483.286 47.72 483.846 47.8693 484.313 48.168C484.779 48.448 485.013 48.98 485.013 49.764C485.013 50.5293 484.779 51.0613 484.313 51.36C483.846 51.6586 483.286 51.808 482.633 51.808C481.961 51.808 481.391 51.6586 480.925 51.36C480.458 51.0613 480.225 50.5293 480.225 49.764C480.225 48.98 480.458 48.448 480.925 48.168C481.391 47.8693 481.961 47.72 482.633 47.72Z" fill="white"/>
<path d="M493.13 69H488.65V47.72H493.13V69Z" fill="white"/>
<path d="M501.471 69.28C499.922 69.28 498.652 68.6173 497.663 67.292C496.674 65.948 496.179 63.9786 496.179 61.384C496.179 58.7706 496.683 56.792 497.691 55.448C498.699 54.104 500.006 53.432 501.611 53.432C502.283 53.432 502.862 53.5346 503.347 53.74C503.851 53.9266 504.28 54.188 504.635 54.524C505.008 54.86 505.326 55.2426 505.587 55.672H505.699C505.643 55.3733 505.587 54.944 505.531 54.384C505.475 53.8053 505.447 53.2173 505.447 52.62V47.72H509.927V69H506.539L505.615 67.012H505.447C505.204 67.4226 504.906 67.8053 504.551 68.16C504.196 68.496 503.767 68.7666 503.263 68.972C502.759 69.1773 502.162 69.28 501.471 69.28ZM503.179 65.948C504.112 65.948 504.775 65.612 505.167 64.94C505.578 64.2493 505.783 63.2226 505.783 61.86V61.412C505.783 59.9186 505.596 58.78 505.223 57.996C504.85 57.212 504.15 56.82 503.123 56.82C502.395 56.82 501.807 57.2213 501.359 58.024C500.93 58.808 500.715 59.9466 500.715 61.44C500.715 62.9333 500.93 64.0626 501.359 64.828C501.807 65.5746 502.414 65.948 503.179 65.948Z" fill="white"/>
<path d="M519.968 53.432C521.331 53.432 522.507 53.7026 523.496 54.244C524.486 54.7853 525.251 55.5693 525.792 56.596C526.334 57.6226 526.604 58.8826 526.604 60.376V62.392H517.504C517.541 63.568 517.84 64.492 518.4 65.164C518.979 65.836 519.8 66.172 520.864 66.172C521.797 66.172 522.638 66.0786 523.384 65.892C524.15 65.6866 524.934 65.3786 525.736 64.968V68.188C525.046 68.5613 524.29 68.832 523.468 69C522.666 69.1866 521.667 69.28 520.472 69.28C519.016 69.28 517.719 69 516.58 68.44C515.46 67.8613 514.573 66.9933 513.92 65.836C513.285 64.6786 512.968 63.2226 512.968 61.468C512.968 59.676 513.257 58.192 513.836 57.016C514.433 55.8213 515.255 54.9253 516.3 54.328C517.364 53.7306 518.587 53.432 519.968 53.432ZM520.052 56.4C519.38 56.4 518.82 56.6613 518.372 57.184C517.924 57.7066 517.663 58.5186 517.588 59.62H522.488C522.488 59.004 522.395 58.4533 522.208 57.968C522.022 57.4826 521.751 57.1 521.396 56.82C521.042 56.54 520.594 56.4 520.052 56.4Z" fill="white"/>
<path d="M535.91 61.328C535.91 62.8213 535.78 64.2866 535.518 65.724C535.276 67.1613 534.884 68.524 534.342 69.812C533.801 71.1186 533.082 72.3226 532.186 73.424H528.518C529.302 72.2666 529.946 71.0253 530.45 69.7C530.973 68.3933 531.365 67.0306 531.626 65.612C531.888 64.1746 532.018 62.7373 532.018 61.3C532.018 59.8253 531.888 58.3693 531.626 56.932C531.365 55.4946 530.973 54.104 530.45 52.76C529.946 51.416 529.293 50.1653 528.49 49.008H532.186C533.082 50.128 533.801 51.3506 534.342 52.676C534.884 54.0013 535.276 55.392 535.518 56.848C535.78 58.304 535.91 59.7973 535.91 61.328Z" fill="white"/>
<path d="M464.388 127.886C456.472 124.182 449.604 121.75 443.783 120.593C437.962 119.204 432.491 118.509 427.369 118.509C421.082 118.509 414.563 120.477 407.811 124.413C401.292 128.349 395.355 133.212 390 139V99.7545C395.355 93.7345 401.525 89.2196 408.51 86.2096C415.495 82.9681 423.178 81.3473 431.56 81.3473C438.079 81.3473 444.598 82.0419 451.117 83.4311C457.636 84.5888 466.018 87.483 476.262 92.1138C484.411 95.8184 491.396 98.3653 497.217 99.7545C503.27 100.912 508.742 101.491 513.631 101.491C519.685 101.491 525.971 99.523 532.49 95.5868C539.242 91.6507 545.412 86.7884 551 81V120.246C545.412 126.265 539.126 130.896 532.141 134.138C525.389 137.148 517.706 138.653 509.091 138.653C502.805 138.653 496.402 138.074 489.883 136.916C483.364 135.527 474.866 132.517 464.388 127.886Z" fill="white"/>
</svg>
