<svg width="495" height="135" viewBox="0 0 495 135" fill="none" xmlns="http://www.w3.org/2000/svg">
<path d="M0 9C0 4.02944 4.02944 0 9 0H120C124.971 0 129 4.02944 129 9V63C129 67.9706 124.971 72 120 72H9C4.02943 72 0 67.9706 0 63V9Z" fill="white"/>
<path fill-rule="evenodd" clip-rule="evenodd" d="M120 2H9C5.13401 2 2 5.13401 2 9V63C2 66.866 5.134 70 9 70H120C123.866 70 127 66.866 127 63V9C127 5.13401 123.866 2 120 2ZM9 0C4.02944 0 0 4.02944 0 9V63C0 67.9706 4.02943 72 9 72H120C124.971 72 129 67.9706 129 63V9C129 4.02944 124.971 0 120 0H9Z" fill="#C5CAD5"/>
<path d="M176 9C176 4.02944 180.029 0 185 0H238C242.971 0 247 4.02944 247 9V63C247 67.9706 242.971 72 238 72H185C180.029 72 176 67.9706 176 63V9Z" fill="white"/>
<path fill-rule="evenodd" clip-rule="evenodd" d="M238 2H185C181.134 2 178 5.13401 178 9V63C178 66.866 181.134 70 185 70H238C241.866 70 245 66.866 245 63V9C245 5.13401 241.866 2 238 2ZM185 0C180.029 0 176 4.02944 176 9V63C176 67.9706 180.029 72 185 72H238C242.971 72 247 67.9706 247 63V9C247 4.02944 242.971 0 238 0H185Z" fill="#C5CAD5"/>
<path d="M156.648 35.1359H166.056V39.0239H156.648V48.6719H152.712V39.0239H143.304V35.1359H152.712V25.4399H156.648V35.1359Z" fill="#434343"/>
<path d="M34.7602 24.296C33.6082 24.296 32.5682 24.568 31.6402 25.112C30.7442 25.656 29.9762 26.44 29.3362 27.464C28.6962 28.456 28.2162 29.672 27.8962 31.112C27.5762 32.552 27.4162 34.168 27.4162 35.96C27.4162 38.392 27.6882 40.472 28.2322 42.2C28.7762 43.896 29.6082 45.192 30.7282 46.088C31.8482 46.984 33.2722 47.432 35.0002 47.432C36.3762 47.432 37.7202 47.272 39.0322 46.952C40.3762 46.632 41.7682 46.184 43.2082 45.608V51.704C41.8002 52.312 40.3762 52.76 38.9362 53.048C37.4962 53.336 35.9282 53.48 34.2322 53.48C30.8082 53.48 28.0082 52.76 25.8322 51.32C23.6562 49.848 22.0402 47.8 20.9842 45.176C19.9602 42.52 19.4482 39.432 19.4482 35.912C19.4482 33.32 19.7842 30.952 20.4562 28.808C21.1282 26.632 22.1202 24.76 23.4322 23.192C24.7442 21.624 26.3442 20.408 28.2322 19.544C30.1522 18.68 32.3442 18.248 34.8082 18.248C36.4082 18.248 38.0882 18.472 39.8482 18.92C41.6402 19.336 43.1922 19.912 44.5042 20.648L42.0562 26.552C40.8722 25.944 39.6722 25.416 38.4562 24.968C37.2722 24.52 36.0402 24.296 34.7602 24.296Z" fill="#434343"/>
<path d="M60.513 47.768C61.281 47.768 61.985 47.688 62.625 47.528C63.297 47.368 63.985 47.176 64.689 46.952V52.28C63.889 52.6 62.945 52.872 61.857 53.096C60.801 53.352 59.553 53.48 58.113 53.48C56.577 53.48 55.201 53.224 53.985 52.712C52.801 52.2 51.873 51.32 51.201 50.072C50.529 48.792 50.193 47.032 50.193 44.792V32.168H47.073V29.144L50.817 26.744L52.929 21.224H57.873V26.792H64.401V32.168H57.873V44.792C57.873 45.784 58.113 46.536 58.593 47.048C59.073 47.528 59.713 47.768 60.513 47.768Z" fill="#434343"/>
<path d="M83.7892 26.312C84.2052 26.312 84.6532 26.328 85.1332 26.36C85.6132 26.392 85.9812 26.44 86.2372 26.504L85.6132 33.224C85.3572 33.16 85.0212 33.112 84.6052 33.08C84.1892 33.016 83.7092 32.984 83.1652 32.984C82.4612 32.984 81.7412 33.112 81.0052 33.368C80.3012 33.592 79.6452 33.96 79.0372 34.472C78.4612 34.984 77.9812 35.672 77.5972 36.536C77.2452 37.368 77.0692 38.408 77.0692 39.656V53H69.3892V26.792H75.1492L76.3012 31.208H76.6852C77.1652 30.312 77.7572 29.496 78.4612 28.76C79.1652 28.024 79.9652 27.432 80.8612 26.984C81.7892 26.536 82.7652 26.312 83.7892 26.312Z" fill="#434343"/>
<path d="M97.8817 53H90.2017V16.52H97.8817V53Z" fill="#434343"/>
<path d="M208 39.5523C206.912 39.0403 205.968 38.7043 205.168 38.5443C204.368 38.3523 203.616 38.2563 202.912 38.2563C202.048 38.2563 201.152 38.5283 200.224 39.0723C199.328 39.6163 198.512 40.2883 197.776 41.0883V35.6643C198.512 34.8323 199.36 34.2083 200.32 33.7923C201.28 33.3443 202.336 33.1203 203.488 33.1203C204.384 33.1203 205.28 33.2163 206.176 33.4083C207.072 33.5683 208.224 33.9683 209.632 34.6083C210.752 35.1203 211.712 35.4723 212.512 35.6643C213.344 35.8243 214.096 35.9043 214.768 35.9043C215.6 35.9043 216.464 35.6323 217.36 35.0883C218.288 34.5443 219.136 33.8723 219.904 33.0723V38.4963C219.136 39.3283 218.272 39.9683 217.312 40.4163C216.384 40.8323 215.328 41.0403 214.144 41.0403C213.28 41.0403 212.4 40.9603 211.504 40.8003C210.608 40.6083 209.44 40.1923 208 39.5523Z" fill="#434343"/>
<path d="M266.352 34.5121V37.5361H305.712V34.5121H266.352ZM271.008 41.0401V43.8721H296.88V47.5681H271.152V55.3921H275.088V50.3041H300.768V41.0401H271.008ZM271.152 54.3361V57.2161H302.16V54.3361H271.152ZM271.344 15.6001V18.4321H296.736V21.9361H271.44V29.3281H275.376V24.6241H300.624V15.6001H271.344ZM271.44 28.368V31.2481H301.44V28.368H271.44Z" fill="#434343"/>
<path d="M328.065 28.8961V32.1601H357.777V28.8961H328.065ZM323.025 38.6881V41.9521H362.337V38.6881H323.025ZM340.545 40.4641V57.7441H344.481V40.4641H340.545ZM328.065 16.5121V30.5281H332.049V16.5121H328.065Z" fill="#434343"/>
<path d="M367.133 38.4001V41.6161H406.493V38.4001H367.133ZM372.317 53.5201V56.784H402.365V53.5201H372.317ZM372.317 45.0241V54.7681H376.301V45.0241H372.317ZM372.125 15.792V18.9121H397.517V23.6161H372.221V32.4001H376.157V26.5441H401.405V15.792H372.125ZM372.221 31.3441V34.4641H402.365V31.3441H372.221Z" fill="#434343"/>
<path d="M420.17 25.4401V27.6961C420.17 34.7521 416.81 42.2881 410.906 45.7441L413.306 48.7681C419.642 44.9761 423.242 36.2881 423.242 27.6961V25.4401H420.17ZM420.89 25.4401V27.6961C420.89 36.0481 424.634 44.2561 431.018 47.8081L433.274 44.8321C427.466 41.6641 423.962 34.5601 423.962 27.6961V25.4401H420.89ZM412.01 22.416V25.6801H432.122V22.416H412.01ZM420.17 15.8881V24.8641H424.01V15.8881H420.17ZM444.506 14.3521V57.7441H448.298V14.3521H444.506ZM437.642 31.8241V35.1841H445.994V31.8241H437.642ZM435.05 15.2641V55.5841H438.794V15.2641H435.05Z" fill="#434343"/>
<path d="M455.494 49.104V52.4161H494.806V49.104H455.494ZM473.062 39.7921V50.4961H477.046V39.7921H473.062ZM460.246 17.5681V20.784H486.022V27.5041H460.39V39.4081H464.326V30.7201H489.958V17.5681H460.246ZM460.39 37.7281V40.9921H490.966V37.7281H460.39Z" fill="#434343"/>
<path d="M59.448 94.1361V95.8161C59.448 103.88 52.824 110.168 41.832 113.288L43.464 116.408C55.944 112.904 63.624 105.08 63.624 94.1361H59.448ZM44.088 94.1361V97.3521H62.136V94.1361H44.088ZM73.08 91.3521V116.12H77.064V91.3521H73.08ZM63.672 102.488V105.8H73.848V102.488H63.672ZM49.08 117.944V134.168H77.064V117.944H49.08ZM73.176 121.16V130.904H53.016V121.16H73.176Z" fill="#434343"/>
<path d="M94.6283 93.9441V99.7521C94.6283 104.696 91.2203 110.408 85.5563 112.952L87.7163 116.072C94.1003 113.144 97.7963 106.28 97.7963 99.7521V93.9441H94.6283ZM95.2523 93.9441V99.7521C95.2523 106.232 98.8043 112.328 105.092 114.968L107.204 111.896C101.636 109.64 98.4203 104.696 98.4203 99.7521V93.9441H95.2523ZM118.292 91.4001V117.608H122.084V91.4001H118.292ZM111.284 102.632V105.944H119.492V102.632H111.284ZM108.98 92.1201V117.368H112.772V92.1201H108.98ZM92.9963 119.96V123.224H118.148V134.744H122.084V119.96H92.9963Z" fill="#434343"/>
<path d="M161.381 95.8641V96.2961C161.381 108.152 156.725 117.848 142.997 124.568L145.157 127.688C160.805 120.008 165.221 108.392 165.221 95.8641H161.381ZM145.349 95.8641V99.0801H163.397V95.8641H145.349ZM160.805 106.616L143.189 107.768L143.861 111.272L160.805 109.688V106.616ZM173.765 91.3521V134.744H177.749V91.3521H173.765Z" fill="#434343"/>
<path d="M198.098 115.592V133.4H202.034V115.592H198.098ZM217.97 91.3521V134.792H221.954V91.3521H217.97ZM186.674 117.56C194.738 117.56 205.202 117.416 214.898 115.784L214.658 112.808C205.25 114.152 194.354 114.2 186.146 114.2L186.674 117.56ZM208.13 120.968V124.088H218.978V120.968H208.13ZM200.306 93.5121C193.826 93.5121 189.41 96.9201 189.41 102.056C189.41 107.192 193.826 110.6 200.306 110.6C206.69 110.6 211.154 107.192 211.154 102.056C211.154 96.9201 206.69 93.5121 200.306 93.5121ZM200.306 96.5841C204.434 96.5841 207.41 98.8401 207.41 102.056C207.41 105.32 204.434 107.528 200.306 107.528C196.082 107.528 193.106 105.32 193.106 102.056C193.106 98.8401 196.082 96.5841 200.306 96.5841Z" fill="#434343"/>
<path d="M235.438 112.136V115.4H265.246V112.136H235.438ZM230.494 125.576V128.888H269.806V125.576H230.494ZM235.438 95.3361V113.576H239.422V98.6481H264.814V95.3361H235.438Z" fill="#434343"/>
<path d="M274.602 111.512V114.536H313.962V111.512H274.602ZM279.258 118.04V120.872H305.13V124.568H279.402V132.392H283.338V127.304H309.018V118.04H279.258ZM279.402 131.336V134.216H310.41V131.336H279.402ZM279.594 92.6001V95.4321H304.986V98.9361H279.69V106.328H283.626V101.624H308.874V92.6001H279.594ZM279.69 105.368V108.248H309.69V105.368H279.69Z" fill="#434343"/>
<path d="M360.939 91.3521V113.432H364.923V91.3521H360.939ZM363.195 100.664V103.976H371.307V100.664H363.195ZM333.051 93.8001V111.176H352.971V93.8001H333.051ZM349.083 96.9681V108.008H336.939V96.9681H349.083ZM337.371 115.496V118.664H361.035V123.128H337.467V132.632H341.403V126.152H364.923V115.496H337.371ZM337.467 130.952V134.168H366.507V130.952H337.467Z" fill="#434343"/>
<path d="M375.335 98.744V102.008H396.839V98.744H375.335ZM386.087 104.888C380.711 104.888 376.775 108.968 376.775 114.824C376.775 120.632 380.711 124.712 386.087 124.712C391.511 124.712 395.447 120.632 395.447 114.824C395.447 108.968 391.511 104.888 386.087 104.888ZM386.087 108.296C389.447 108.296 391.895 110.984 391.895 114.824C391.895 118.664 389.447 121.352 386.087 121.352C382.775 121.352 380.375 118.664 380.375 114.824C380.375 110.984 382.775 108.296 386.087 108.296ZM408.311 91.3521V134.744H412.151V91.3521H408.311ZM401.399 109.592V112.904H409.607V109.592H401.399ZM399.047 92.312V132.632H402.791V92.312H399.047ZM384.167 92.6001V100.76H388.103V92.6001H384.167Z" fill="#434343"/>
<path d="M425.588 120.824H421.988L420.788 96.7281H426.788L425.588 120.824ZM420.452 128.168C420.452 126.92 420.772 126.04 421.412 125.528C422.052 125.016 422.836 124.76 423.764 124.76C424.66 124.76 425.428 125.016 426.068 125.528C426.708 126.04 427.028 126.92 427.028 128.168C427.028 129.416 426.708 130.312 426.068 130.856C425.428 131.4 424.66 131.672 423.764 131.672C422.836 131.672 422.052 131.4 421.412 130.856C420.772 130.312 420.452 129.416 420.452 128.168Z" fill="#434343"/>
</svg>
