<svg width="164" height="77" viewBox="0 0 164 77" fill="none" xmlns="http://www.w3.org/2000/svg">
<path d="M32.0001 16.2C29.6001 16.2 27.4334 16.7667 25.5001 17.9C23.6334 19.0333 22.0334 20.6667 20.7001 22.8C19.3668 24.8667 18.3668 27.4 17.7001 30.4C17.0334 33.4 16.7001 36.7667 16.7001 40.5C16.7001 45.5667 17.2668 49.9 18.4001 53.5C19.5334 57.0333 21.2668 59.7333 23.6001 61.6C25.9334 63.4667 28.9001 64.4 32.5001 64.4C35.3668 64.4 38.1668 64.0667 40.9001 63.4C43.7001 62.7333 46.6001 61.8 49.6001 60.6V73.3C46.6668 74.5667 43.7001 75.5 40.7001 76.1C37.7001 76.7 34.4334 77 30.9001 77C23.7668 77 17.9334 75.5 13.4001 72.5C8.86676 69.4333 5.5001 65.1667 3.3001 59.7C1.16676 54.1667 0.100098 47.7333 0.100098 40.4C0.100098 35 0.800097 30.0667 2.2001 25.6C3.6001 21.0667 5.66676 17.1667 8.4001 13.9C11.1334 10.6333 14.4668 8.1 18.4001 6.3C22.4001 4.5 26.9668 3.6 32.1001 3.6C35.4334 3.6 38.9334 4.06667 42.6001 5C46.3334 5.86667 49.5668 7.06667 52.3001 8.6L47.2001 20.9C44.7334 19.6333 42.2334 18.5333 39.7001 17.6C37.2334 16.6667 34.6668 16.2 32.0001 16.2Z" fill="white"/>
<path d="M85.6517 65.1C87.2517 65.1 88.7183 64.9333 90.0517 64.6C91.4517 64.2667 92.885 63.8667 94.3517 63.4V74.5C92.685 75.1667 90.7183 75.7333 88.4517 76.2C86.2517 76.7333 83.6517 77 80.6517 77C77.4517 77 74.585 76.4667 72.0517 75.4C69.585 74.3333 67.6517 72.5 66.2517 69.9C64.8517 67.2333 64.1517 63.5667 64.1517 58.9V32.6H57.6517V26.3L65.4517 21.3L69.8517 9.8H80.1517V21.4H93.7517V32.6H80.1517V58.9C80.1517 60.9667 80.6517 62.5333 81.6517 63.6C82.6517 64.6 83.985 65.1 85.6517 65.1Z" fill="white"/>
<path d="M134.144 20.4C135.011 20.4 135.944 20.4333 136.944 20.5C137.944 20.5667 138.711 20.6667 139.244 20.8L137.944 34.8C137.411 34.6667 136.711 34.5667 135.844 34.5C134.977 34.3667 133.977 34.3 132.844 34.3C131.377 34.3 129.877 34.5667 128.344 35.1C126.877 35.5667 125.511 36.3333 124.244 37.4C123.044 38.4667 122.044 39.9 121.244 41.7C120.511 43.4333 120.144 45.6 120.144 48.2V76H104.144V21.4H116.144L118.544 30.6H119.344C120.344 28.7333 121.577 27.0333 123.044 25.5C124.511 23.9667 126.177 22.7333 128.044 21.8C129.977 20.8667 132.011 20.4 134.144 20.4Z" fill="white"/>
<path d="M163.503 76H147.503V0H163.503V76Z" fill="white"/>
</svg>
